<?xml version="1.0" encoding="utf-8" standalone="no"?>
<!DOCTYPE svg PUBLIC "-//W3C//DTD SVG 1.1//EN"
  "http://www.w3.org/Graphics/SVG/1.1/DTD/svg11.dtd">
<svg xmlns:xlink="http://www.w3.org/1999/xlink" width="1143.426875pt" height="422.889687pt" viewBox="0 0 1143.426875 422.889687" xmlns="http://www.w3.org/2000/svg" version="1.1">
 <metadata>
  <rdf:RDF xmlns:dc="http://purl.org/dc/elements/1.1/" xmlns:cc="http://creativecommons.org/ns#" xmlns:rdf="http://www.w3.org/1999/02/22-rdf-syntax-ns#">
   <cc:Work>
    <dc:type rdf:resource="http://purl.org/dc/dcmitype/StillImage"/>
    <dc:date>2025-11-23T05:48:41.798969</dc:date>
    <dc:format>image/svg+xml</dc:format>
    <dc:creator>
     <cc:Agent>
      <dc:title>Matplotlib v3.10.0, https://matplotlib.org/</dc:title>
     </cc:Agent>
    </dc:creator>
   </cc:Work>
  </rdf:RDF>
 </metadata>
 <defs>
  <style type="text/css">*{stroke-linejoin: round; stroke-linecap: butt}</style>
 </defs>
 <g id="figure_1">
  <g id="patch_1">
   <path d="M 0 422.889687 
L 1143.426875 422.889687 
L 1143.426875 0 
L 0 0 
z
" style="fill: #ffffff"/>
  </g>
  <g id="axes_1">
   <g id="patch_2">
    <path d="M 45.716875 383.397812 
L 567.246875 383.397812 
L 567.246875 23.837812 
L 45.716875 23.837812 
z
" style="fill: #ffffff"/>
   </g>
   <g id="matplotlib.axis_1">
    <g id="xtick_1">
     <g id="line2d_1">
      <path d="M 66.240783 383.397812 
L 66.240783 23.837812 
" clip-path="url(#pfeb41c048c)" style="fill: none; stroke: #b0b0b0; stroke-opacity: 0.3; stroke-width: 0.8; stroke-linecap: square"/>
     </g>
     <g id="line2d_2">
      <defs>
       <path id="mf01cb9da88" d="M 0 0 
L 0 3.5 
" style="stroke: #000000; stroke-width: 0.8"/>
      </defs>
      <g>
       <use xlink:href="#mf01cb9da88" x="66.240783" y="383.397812" style="stroke: #000000; stroke-width: 0.8"/>
      </g>
     </g>
     <g id="text_1">
      <!-- 0 -->
      <g transform="translate(63.059533 397.99625) scale(0.1 -0.1)">
       <defs>
        <path id="DejaVuSans-30" d="M 2034 4250 
Q 1547 4250 1301 3770 
Q 1056 3291 1056 2328 
Q 1056 1369 1301 889 
Q 1547 409 2034 409 
Q 2525 409 2770 889 
Q 3016 1369 3016 2328 
Q 3016 3291 2770 3770 
Q 2525 4250 2034 4250 
z
M 2034 4750 
Q 2819 4750 3233 4129 
Q 3647 3509 3647 2328 
Q 3647 1150 3233 529 
Q 2819 -91 2034 -91 
Q 1250 -91 836 529 
Q 422 1150 422 2328 
Q 422 3509 836 4129 
Q 1250 4750 2034 4750 
z
" transform="scale(0.015625)"/>
       </defs>
       <use xlink:href="#DejaVuSans-30"/>
      </g>
     </g>
    </g>
    <g id="xtick_2">
     <g id="line2d_3">
      <path d="M 129.880807 383.397812 
L 129.880807 23.837812 
" clip-path="url(#pfeb41c048c)" style="fill: none; stroke: #b0b0b0; stroke-opacity: 0.3; stroke-width: 0.8; stroke-linecap: square"/>
     </g>
     <g id="line2d_4">
      <g>
       <use xlink:href="#mf01cb9da88" x="129.880807" y="383.397812" style="stroke: #000000; stroke-width: 0.8"/>
      </g>
     </g>
     <g id="text_2">
      <!-- 20 -->
      <g transform="translate(123.518307 397.99625) scale(0.1 -0.1)">
       <defs>
        <path id="DejaVuSans-32" d="M 1228 531 
L 3431 531 
L 3431 0 
L 469 0 
L 469 531 
Q 828 903 1448 1529 
Q 2069 2156 2228 2338 
Q 2531 2678 2651 2914 
Q 2772 3150 2772 3378 
Q 2772 3750 2511 3984 
Q 2250 4219 1831 4219 
Q 1534 4219 1204 4116 
Q 875 4013 500 3803 
L 500 4441 
Q 881 4594 1212 4672 
Q 1544 4750 1819 4750 
Q 2544 4750 2975 4387 
Q 3406 4025 3406 3419 
Q 3406 3131 3298 2873 
Q 3191 2616 2906 2266 
Q 2828 2175 2409 1742 
Q 1991 1309 1228 531 
z
" transform="scale(0.015625)"/>
       </defs>
       <use xlink:href="#DejaVuSans-32"/>
       <use xlink:href="#DejaVuSans-30" transform="translate(63.623047 0)"/>
      </g>
     </g>
    </g>
    <g id="xtick_3">
     <g id="line2d_5">
      <path d="M 193.520832 383.397812 
L 193.520832 23.837812 
" clip-path="url(#pfeb41c048c)" style="fill: none; stroke: #b0b0b0; stroke-opacity: 0.3; stroke-width: 0.8; stroke-linecap: square"/>
     </g>
     <g id="line2d_6">
      <g>
       <use xlink:href="#mf01cb9da88" x="193.520832" y="383.397812" style="stroke: #000000; stroke-width: 0.8"/>
      </g>
     </g>
     <g id="text_3">
      <!-- 40 -->
      <g transform="translate(187.158332 397.99625) scale(0.1 -0.1)">
       <defs>
        <path id="DejaVuSans-34" d="M 2419 4116 
L 825 1625 
L 2419 1625 
L 2419 4116 
z
M 2253 4666 
L 3047 4666 
L 3047 1625 
L 3713 1625 
L 3713 1100 
L 3047 1100 
L 3047 0 
L 2419 0 
L 2419 1100 
L 313 1100 
L 313 1709 
L 2253 4666 
z
" transform="scale(0.015625)"/>
       </defs>
       <use xlink:href="#DejaVuSans-34"/>
       <use xlink:href="#DejaVuSans-30" transform="translate(63.623047 0)"/>
      </g>
     </g>
    </g>
    <g id="xtick_4">
     <g id="line2d_7">
      <path d="M 257.160856 383.397812 
L 257.160856 23.837812 
" clip-path="url(#pfeb41c048c)" style="fill: none; stroke: #b0b0b0; stroke-opacity: 0.3; stroke-width: 0.8; stroke-linecap: square"/>
     </g>
     <g id="line2d_8">
      <g>
       <use xlink:href="#mf01cb9da88" x="257.160856" y="383.397812" style="stroke: #000000; stroke-width: 0.8"/>
      </g>
     </g>
     <g id="text_4">
      <!-- 60 -->
      <g transform="translate(250.798356 397.99625) scale(0.1 -0.1)">
       <defs>
        <path id="DejaVuSans-36" d="M 2113 2584 
Q 1688 2584 1439 2293 
Q 1191 2003 1191 1497 
Q 1191 994 1439 701 
Q 1688 409 2113 409 
Q 2538 409 2786 701 
Q 3034 994 3034 1497 
Q 3034 2003 2786 2293 
Q 2538 2584 2113 2584 
z
M 3366 4563 
L 3366 3988 
Q 3128 4100 2886 4159 
Q 2644 4219 2406 4219 
Q 1781 4219 1451 3797 
Q 1122 3375 1075 2522 
Q 1259 2794 1537 2939 
Q 1816 3084 2150 3084 
Q 2853 3084 3261 2657 
Q 3669 2231 3669 1497 
Q 3669 778 3244 343 
Q 2819 -91 2113 -91 
Q 1303 -91 875 529 
Q 447 1150 447 2328 
Q 447 3434 972 4092 
Q 1497 4750 2381 4750 
Q 2619 4750 2861 4703 
Q 3103 4656 3366 4563 
z
" transform="scale(0.015625)"/>
       </defs>
       <use xlink:href="#DejaVuSans-36"/>
       <use xlink:href="#DejaVuSans-30" transform="translate(63.623047 0)"/>
      </g>
     </g>
    </g>
    <g id="xtick_5">
     <g id="line2d_9">
      <path d="M 320.80088 383.397812 
L 320.80088 23.837812 
" clip-path="url(#pfeb41c048c)" style="fill: none; stroke: #b0b0b0; stroke-opacity: 0.3; stroke-width: 0.8; stroke-linecap: square"/>
     </g>
     <g id="line2d_10">
      <g>
       <use xlink:href="#mf01cb9da88" x="320.80088" y="383.397812" style="stroke: #000000; stroke-width: 0.8"/>
      </g>
     </g>
     <g id="text_5">
      <!-- 80 -->
      <g transform="translate(314.43838 397.99625) scale(0.1 -0.1)">
       <defs>
        <path id="DejaVuSans-38" d="M 2034 2216 
Q 1584 2216 1326 1975 
Q 1069 1734 1069 1313 
Q 1069 891 1326 650 
Q 1584 409 2034 409 
Q 2484 409 2743 651 
Q 3003 894 3003 1313 
Q 3003 1734 2745 1975 
Q 2488 2216 2034 2216 
z
M 1403 2484 
Q 997 2584 770 2862 
Q 544 3141 544 3541 
Q 544 4100 942 4425 
Q 1341 4750 2034 4750 
Q 2731 4750 3128 4425 
Q 3525 4100 3525 3541 
Q 3525 3141 3298 2862 
Q 3072 2584 2669 2484 
Q 3125 2378 3379 2068 
Q 3634 1759 3634 1313 
Q 3634 634 3220 271 
Q 2806 -91 2034 -91 
Q 1263 -91 848 271 
Q 434 634 434 1313 
Q 434 1759 690 2068 
Q 947 2378 1403 2484 
z
M 1172 3481 
Q 1172 3119 1398 2916 
Q 1625 2713 2034 2713 
Q 2441 2713 2670 2916 
Q 2900 3119 2900 3481 
Q 2900 3844 2670 4047 
Q 2441 4250 2034 4250 
Q 1625 4250 1398 4047 
Q 1172 3844 1172 3481 
z
" transform="scale(0.015625)"/>
       </defs>
       <use xlink:href="#DejaVuSans-38"/>
       <use xlink:href="#DejaVuSans-30" transform="translate(63.623047 0)"/>
      </g>
     </g>
    </g>
    <g id="xtick_6">
     <g id="line2d_11">
      <path d="M 384.440905 383.397812 
L 384.440905 23.837812 
" clip-path="url(#pfeb41c048c)" style="fill: none; stroke: #b0b0b0; stroke-opacity: 0.3; stroke-width: 0.8; stroke-linecap: square"/>
     </g>
     <g id="line2d_12">
      <g>
       <use xlink:href="#mf01cb9da88" x="384.440905" y="383.397812" style="stroke: #000000; stroke-width: 0.8"/>
      </g>
     </g>
     <g id="text_6">
      <!-- 100 -->
      <g transform="translate(374.897155 397.99625) scale(0.1 -0.1)">
       <defs>
        <path id="DejaVuSans-31" d="M 794 531 
L 1825 531 
L 1825 4091 
L 703 3866 
L 703 4441 
L 1819 4666 
L 2450 4666 
L 2450 531 
L 3481 531 
L 3481 0 
L 794 0 
L 794 531 
z
" transform="scale(0.015625)"/>
       </defs>
       <use xlink:href="#DejaVuSans-31"/>
       <use xlink:href="#DejaVuSans-30" transform="translate(63.623047 0)"/>
       <use xlink:href="#DejaVuSans-30" transform="translate(127.246094 0)"/>
      </g>
     </g>
    </g>
    <g id="xtick_7">
     <g id="line2d_13">
      <path d="M 448.080929 383.397812 
L 448.080929 23.837812 
" clip-path="url(#pfeb41c048c)" style="fill: none; stroke: #b0b0b0; stroke-opacity: 0.3; stroke-width: 0.8; stroke-linecap: square"/>
     </g>
     <g id="line2d_14">
      <g>
       <use xlink:href="#mf01cb9da88" x="448.080929" y="383.397812" style="stroke: #000000; stroke-width: 0.8"/>
      </g>
     </g>
     <g id="text_7">
      <!-- 120 -->
      <g transform="translate(438.537179 397.99625) scale(0.1 -0.1)">
       <use xlink:href="#DejaVuSans-31"/>
       <use xlink:href="#DejaVuSans-32" transform="translate(63.623047 0)"/>
       <use xlink:href="#DejaVuSans-30" transform="translate(127.246094 0)"/>
      </g>
     </g>
    </g>
    <g id="xtick_8">
     <g id="line2d_15">
      <path d="M 511.720954 383.397812 
L 511.720954 23.837812 
" clip-path="url(#pfeb41c048c)" style="fill: none; stroke: #b0b0b0; stroke-opacity: 0.3; stroke-width: 0.8; stroke-linecap: square"/>
     </g>
     <g id="line2d_16">
      <g>
       <use xlink:href="#mf01cb9da88" x="511.720954" y="383.397812" style="stroke: #000000; stroke-width: 0.8"/>
      </g>
     </g>
     <g id="text_8">
      <!-- 140 -->
      <g transform="translate(502.177204 397.99625) scale(0.1 -0.1)">
       <use xlink:href="#DejaVuSans-31"/>
       <use xlink:href="#DejaVuSans-34" transform="translate(63.623047 0)"/>
       <use xlink:href="#DejaVuSans-30" transform="translate(127.246094 0)"/>
      </g>
     </g>
    </g>
    <g id="text_9">
     <!-- Epoch -->
     <g transform="translate(286.138125 413.194062) scale(0.12 -0.12)">
      <defs>
       <path id="DejaVuSans-Bold-45" d="M 588 4666 
L 3834 4666 
L 3834 3756 
L 1791 3756 
L 1791 2888 
L 3713 2888 
L 3713 1978 
L 1791 1978 
L 1791 909 
L 3903 909 
L 3903 0 
L 588 0 
L 588 4666 
z
" transform="scale(0.015625)"/>
       <path id="DejaVuSans-Bold-70" d="M 1656 506 
L 1656 -1331 
L 538 -1331 
L 538 3500 
L 1656 3500 
L 1656 2988 
Q 1888 3294 2169 3439 
Q 2450 3584 2816 3584 
Q 3463 3584 3878 3070 
Q 4294 2556 4294 1747 
Q 4294 938 3878 423 
Q 3463 -91 2816 -91 
Q 2450 -91 2169 54 
Q 1888 200 1656 506 
z
M 2400 2772 
Q 2041 2772 1848 2508 
Q 1656 2244 1656 1747 
Q 1656 1250 1848 986 
Q 2041 722 2400 722 
Q 2759 722 2948 984 
Q 3138 1247 3138 1747 
Q 3138 2247 2948 2509 
Q 2759 2772 2400 2772 
z
" transform="scale(0.015625)"/>
       <path id="DejaVuSans-Bold-6f" d="M 2203 2784 
Q 1831 2784 1636 2517 
Q 1441 2250 1441 1747 
Q 1441 1244 1636 976 
Q 1831 709 2203 709 
Q 2569 709 2762 976 
Q 2956 1244 2956 1747 
Q 2956 2250 2762 2517 
Q 2569 2784 2203 2784 
z
M 2203 3584 
Q 3106 3584 3614 3096 
Q 4122 2609 4122 1747 
Q 4122 884 3614 396 
Q 3106 -91 2203 -91 
Q 1297 -91 786 396 
Q 275 884 275 1747 
Q 275 2609 786 3096 
Q 1297 3584 2203 3584 
z
" transform="scale(0.015625)"/>
       <path id="DejaVuSans-Bold-63" d="M 3366 3391 
L 3366 2478 
Q 3138 2634 2908 2709 
Q 2678 2784 2431 2784 
Q 1963 2784 1702 2511 
Q 1441 2238 1441 1747 
Q 1441 1256 1702 982 
Q 1963 709 2431 709 
Q 2694 709 2930 787 
Q 3166 866 3366 1019 
L 3366 103 
Q 3103 6 2833 -42 
Q 2563 -91 2291 -91 
Q 1344 -91 809 395 
Q 275 881 275 1747 
Q 275 2613 809 3098 
Q 1344 3584 2291 3584 
Q 2566 3584 2833 3536 
Q 3100 3488 3366 3391 
z
" transform="scale(0.015625)"/>
       <path id="DejaVuSans-Bold-68" d="M 4056 2131 
L 4056 0 
L 2931 0 
L 2931 347 
L 2931 1625 
Q 2931 2084 2911 2256 
Q 2891 2428 2841 2509 
Q 2775 2619 2662 2680 
Q 2550 2741 2406 2741 
Q 2056 2741 1856 2470 
Q 1656 2200 1656 1722 
L 1656 0 
L 538 0 
L 538 4863 
L 1656 4863 
L 1656 2988 
Q 1909 3294 2193 3439 
Q 2478 3584 2822 3584 
Q 3428 3584 3742 3212 
Q 4056 2841 4056 2131 
z
" transform="scale(0.015625)"/>
      </defs>
      <use xlink:href="#DejaVuSans-Bold-45"/>
      <use xlink:href="#DejaVuSans-Bold-70" transform="translate(68.310547 0)"/>
      <use xlink:href="#DejaVuSans-Bold-6f" transform="translate(139.892578 0)"/>
      <use xlink:href="#DejaVuSans-Bold-63" transform="translate(208.59375 0)"/>
      <use xlink:href="#DejaVuSans-Bold-68" transform="translate(267.871094 0)"/>
     </g>
    </g>
   </g>
   <g id="matplotlib.axis_2">
    <g id="ytick_1">
     <g id="line2d_17">
      <path d="M 45.716875 344.646009 
L 567.246875 344.646009 
" clip-path="url(#pfeb41c048c)" style="fill: none; stroke: #b0b0b0; stroke-opacity: 0.3; stroke-width: 0.8; stroke-linecap: square"/>
     </g>
     <g id="line2d_18">
      <defs>
       <path id="mdc67eb4b13" d="M 0 0 
L -3.5 0 
" style="stroke: #000000; stroke-width: 0.8"/>
      </defs>
      <g>
       <use xlink:href="#mdc67eb4b13" x="45.716875" y="344.646009" style="stroke: #000000; stroke-width: 0.8"/>
      </g>
     </g>
     <g id="text_10">
      <!-- 0.8 -->
      <g transform="translate(22.81375 348.445228) scale(0.1 -0.1)">
       <defs>
        <path id="DejaVuSans-2e" d="M 684 794 
L 1344 794 
L 1344 0 
L 684 0 
L 684 794 
z
" transform="scale(0.015625)"/>
       </defs>
       <use xlink:href="#DejaVuSans-30"/>
       <use xlink:href="#DejaVuSans-2e" transform="translate(63.623047 0)"/>
       <use xlink:href="#DejaVuSans-38" transform="translate(95.410156 0)"/>
      </g>
     </g>
    </g>
    <g id="ytick_2">
     <g id="line2d_19">
      <path d="M 45.716875 288.629389 
L 567.246875 288.629389 
" clip-path="url(#pfeb41c048c)" style="fill: none; stroke: #b0b0b0; stroke-opacity: 0.3; stroke-width: 0.8; stroke-linecap: square"/>
     </g>
     <g id="line2d_20">
      <g>
       <use xlink:href="#mdc67eb4b13" x="45.716875" y="288.629389" style="stroke: #000000; stroke-width: 0.8"/>
      </g>
     </g>
     <g id="text_11">
      <!-- 1.0 -->
      <g transform="translate(22.81375 292.428607) scale(0.1 -0.1)">
       <use xlink:href="#DejaVuSans-31"/>
       <use xlink:href="#DejaVuSans-2e" transform="translate(63.623047 0)"/>
       <use xlink:href="#DejaVuSans-30" transform="translate(95.410156 0)"/>
      </g>
     </g>
    </g>
    <g id="ytick_3">
     <g id="line2d_21">
      <path d="M 45.716875 232.612768 
L 567.246875 232.612768 
" clip-path="url(#pfeb41c048c)" style="fill: none; stroke: #b0b0b0; stroke-opacity: 0.3; stroke-width: 0.8; stroke-linecap: square"/>
     </g>
     <g id="line2d_22">
      <g>
       <use xlink:href="#mdc67eb4b13" x="45.716875" y="232.612768" style="stroke: #000000; stroke-width: 0.8"/>
      </g>
     </g>
     <g id="text_12">
      <!-- 1.2 -->
      <g transform="translate(22.81375 236.411987) scale(0.1 -0.1)">
       <use xlink:href="#DejaVuSans-31"/>
       <use xlink:href="#DejaVuSans-2e" transform="translate(63.623047 0)"/>
       <use xlink:href="#DejaVuSans-32" transform="translate(95.410156 0)"/>
      </g>
     </g>
    </g>
    <g id="ytick_4">
     <g id="line2d_23">
      <path d="M 45.716875 176.596148 
L 567.246875 176.596148 
" clip-path="url(#pfeb41c048c)" style="fill: none; stroke: #b0b0b0; stroke-opacity: 0.3; stroke-width: 0.8; stroke-linecap: square"/>
     </g>
     <g id="line2d_24">
      <g>
       <use xlink:href="#mdc67eb4b13" x="45.716875" y="176.596148" style="stroke: #000000; stroke-width: 0.8"/>
      </g>
     </g>
     <g id="text_13">
      <!-- 1.4 -->
      <g transform="translate(22.81375 180.395367) scale(0.1 -0.1)">
       <use xlink:href="#DejaVuSans-31"/>
       <use xlink:href="#DejaVuSans-2e" transform="translate(63.623047 0)"/>
       <use xlink:href="#DejaVuSans-34" transform="translate(95.410156 0)"/>
      </g>
     </g>
    </g>
    <g id="ytick_5">
     <g id="line2d_25">
      <path d="M 45.716875 120.579528 
L 567.246875 120.579528 
" clip-path="url(#pfeb41c048c)" style="fill: none; stroke: #b0b0b0; stroke-opacity: 0.3; stroke-width: 0.8; stroke-linecap: square"/>
     </g>
     <g id="line2d_26">
      <g>
       <use xlink:href="#mdc67eb4b13" x="45.716875" y="120.579528" style="stroke: #000000; stroke-width: 0.8"/>
      </g>
     </g>
     <g id="text_14">
      <!-- 1.6 -->
      <g transform="translate(22.81375 124.378746) scale(0.1 -0.1)">
       <use xlink:href="#DejaVuSans-31"/>
       <use xlink:href="#DejaVuSans-2e" transform="translate(63.623047 0)"/>
       <use xlink:href="#DejaVuSans-36" transform="translate(95.410156 0)"/>
      </g>
     </g>
    </g>
    <g id="ytick_6">
     <g id="line2d_27">
      <path d="M 45.716875 64.562907 
L 567.246875 64.562907 
" clip-path="url(#pfeb41c048c)" style="fill: none; stroke: #b0b0b0; stroke-opacity: 0.3; stroke-width: 0.8; stroke-linecap: square"/>
     </g>
     <g id="line2d_28">
      <g>
       <use xlink:href="#mdc67eb4b13" x="45.716875" y="64.562907" style="stroke: #000000; stroke-width: 0.8"/>
      </g>
     </g>
     <g id="text_15">
      <!-- 1.8 -->
      <g transform="translate(22.81375 68.362126) scale(0.1 -0.1)">
       <use xlink:href="#DejaVuSans-31"/>
       <use xlink:href="#DejaVuSans-2e" transform="translate(63.623047 0)"/>
       <use xlink:href="#DejaVuSans-38" transform="translate(95.410156 0)"/>
      </g>
     </g>
    </g>
    <g id="text_16">
     <!-- Validation Loss -->
     <g transform="translate(16.318125 254.931875) rotate(-90) scale(0.12 -0.12)">
      <defs>
       <path id="DejaVuSans-Bold-56" d="M 31 4666 
L 1241 4666 
L 2478 1222 
L 3713 4666 
L 4922 4666 
L 3194 0 
L 1759 0 
L 31 4666 
z
" transform="scale(0.015625)"/>
       <path id="DejaVuSans-Bold-61" d="M 2106 1575 
Q 1756 1575 1579 1456 
Q 1403 1338 1403 1106 
Q 1403 894 1545 773 
Q 1688 653 1941 653 
Q 2256 653 2472 879 
Q 2688 1106 2688 1447 
L 2688 1575 
L 2106 1575 
z
M 3816 1997 
L 3816 0 
L 2688 0 
L 2688 519 
Q 2463 200 2181 54 
Q 1900 -91 1497 -91 
Q 953 -91 614 226 
Q 275 544 275 1050 
Q 275 1666 698 1953 
Q 1122 2241 2028 2241 
L 2688 2241 
L 2688 2328 
Q 2688 2594 2478 2717 
Q 2269 2841 1825 2841 
Q 1466 2841 1156 2769 
Q 847 2697 581 2553 
L 581 3406 
Q 941 3494 1303 3539 
Q 1666 3584 2028 3584 
Q 2975 3584 3395 3211 
Q 3816 2838 3816 1997 
z
" transform="scale(0.015625)"/>
       <path id="DejaVuSans-Bold-6c" d="M 538 4863 
L 1656 4863 
L 1656 0 
L 538 0 
L 538 4863 
z
" transform="scale(0.015625)"/>
       <path id="DejaVuSans-Bold-69" d="M 538 3500 
L 1656 3500 
L 1656 0 
L 538 0 
L 538 3500 
z
M 538 4863 
L 1656 4863 
L 1656 3950 
L 538 3950 
L 538 4863 
z
" transform="scale(0.015625)"/>
       <path id="DejaVuSans-Bold-64" d="M 2919 2988 
L 2919 4863 
L 4044 4863 
L 4044 0 
L 2919 0 
L 2919 506 
Q 2688 197 2409 53 
Q 2131 -91 1766 -91 
Q 1119 -91 703 423 
Q 288 938 288 1747 
Q 288 2556 703 3070 
Q 1119 3584 1766 3584 
Q 2128 3584 2408 3439 
Q 2688 3294 2919 2988 
z
M 2181 722 
Q 2541 722 2730 984 
Q 2919 1247 2919 1747 
Q 2919 2247 2730 2509 
Q 2541 2772 2181 2772 
Q 1825 2772 1636 2509 
Q 1447 2247 1447 1747 
Q 1447 1247 1636 984 
Q 1825 722 2181 722 
z
" transform="scale(0.015625)"/>
       <path id="DejaVuSans-Bold-74" d="M 1759 4494 
L 1759 3500 
L 2913 3500 
L 2913 2700 
L 1759 2700 
L 1759 1216 
Q 1759 972 1856 886 
Q 1953 800 2241 800 
L 2816 800 
L 2816 0 
L 1856 0 
Q 1194 0 917 276 
Q 641 553 641 1216 
L 641 2700 
L 84 2700 
L 84 3500 
L 641 3500 
L 641 4494 
L 1759 4494 
z
" transform="scale(0.015625)"/>
       <path id="DejaVuSans-Bold-6e" d="M 4056 2131 
L 4056 0 
L 2931 0 
L 2931 347 
L 2931 1631 
Q 2931 2084 2911 2256 
Q 2891 2428 2841 2509 
Q 2775 2619 2662 2680 
Q 2550 2741 2406 2741 
Q 2056 2741 1856 2470 
Q 1656 2200 1656 1722 
L 1656 0 
L 538 0 
L 538 3500 
L 1656 3500 
L 1656 2988 
Q 1909 3294 2193 3439 
Q 2478 3584 2822 3584 
Q 3428 3584 3742 3212 
Q 4056 2841 4056 2131 
z
" transform="scale(0.015625)"/>
       <path id="DejaVuSans-Bold-20" transform="scale(0.015625)"/>
       <path id="DejaVuSans-Bold-4c" d="M 588 4666 
L 1791 4666 
L 1791 909 
L 3903 909 
L 3903 0 
L 588 0 
L 588 4666 
z
" transform="scale(0.015625)"/>
       <path id="DejaVuSans-Bold-73" d="M 3272 3391 
L 3272 2541 
Q 2913 2691 2578 2766 
Q 2244 2841 1947 2841 
Q 1628 2841 1473 2761 
Q 1319 2681 1319 2516 
Q 1319 2381 1436 2309 
Q 1553 2238 1856 2203 
L 2053 2175 
Q 2913 2066 3209 1816 
Q 3506 1566 3506 1031 
Q 3506 472 3093 190 
Q 2681 -91 1863 -91 
Q 1516 -91 1145 -36 
Q 775 19 384 128 
L 384 978 
Q 719 816 1070 734 
Q 1422 653 1784 653 
Q 2113 653 2278 743 
Q 2444 834 2444 1013 
Q 2444 1163 2330 1236 
Q 2216 1309 1875 1350 
L 1678 1375 
Q 931 1469 631 1722 
Q 331 1975 331 2491 
Q 331 3047 712 3315 
Q 1094 3584 1881 3584 
Q 2191 3584 2531 3537 
Q 2872 3491 3272 3391 
z
" transform="scale(0.015625)"/>
      </defs>
      <use xlink:href="#DejaVuSans-Bold-56"/>
      <use xlink:href="#DejaVuSans-Bold-61" transform="translate(71.892578 0)"/>
      <use xlink:href="#DejaVuSans-Bold-6c" transform="translate(139.373047 0)"/>
      <use xlink:href="#DejaVuSans-Bold-69" transform="translate(173.650391 0)"/>
      <use xlink:href="#DejaVuSans-Bold-64" transform="translate(207.927734 0)"/>
      <use xlink:href="#DejaVuSans-Bold-61" transform="translate(279.509766 0)"/>
      <use xlink:href="#DejaVuSans-Bold-74" transform="translate(346.990234 0)"/>
      <use xlink:href="#DejaVuSans-Bold-69" transform="translate(394.792969 0)"/>
      <use xlink:href="#DejaVuSans-Bold-6f" transform="translate(429.070312 0)"/>
      <use xlink:href="#DejaVuSans-Bold-6e" transform="translate(497.771484 0)"/>
      <use xlink:href="#DejaVuSans-Bold-20" transform="translate(568.962891 0)"/>
      <use xlink:href="#DejaVuSans-Bold-4c" transform="translate(603.777344 0)"/>
      <use xlink:href="#DejaVuSans-Bold-6f" transform="translate(667.498047 0)"/>
      <use xlink:href="#DejaVuSans-Bold-73" transform="translate(736.199219 0)"/>
      <use xlink:href="#DejaVuSans-Bold-73" transform="translate(795.720703 0)"/>
     </g>
    </g>
   </g>
   <g id="line2d_29">
    <path d="M 69.422784 40.181449 
L 72.604785 59.915457 
L 75.786787 67.187812 
L 78.968788 78.676537 
L 82.150789 78.692004 
L 85.33279 86.156849 
L 88.514791 91.934587 
L 91.696793 91.940766 
L 94.878794 94.62753 
L 98.060795 97.339835 
L 101.242796 99.922261 
L 104.424798 104.071078 
L 107.606799 105.10945 
L 110.7888 105.985472 
L 113.970801 110.130356 
L 117.152802 109.634985 
L 120.334804 107.9107 
L 123.516805 113.277794 
L 126.698806 116.592654 
L 129.880807 119.606827 
L 133.062808 120.658245 
L 136.24481 120.247243 
L 139.426811 123.062928 
L 142.608812 123.363565 
L 145.790813 123.056228 
L 148.972815 124.551866 
L 152.154816 126.747185 
L 155.336817 125.555571 
L 158.518818 124.628405 
L 161.700819 128.058058 
L 164.882821 130.12321 
L 168.064822 133.246939 
L 171.246823 132.75728 
L 174.428824 135.971978 
L 177.610826 136.037932 
L 180.792827 135.695778 
L 183.974828 137.29845 
L 187.156829 136.160229 
L 190.33883 138.053343 
L 193.520832 139.218959 
L 196.702833 137.938988 
L 199.884834 141.125229 
L 203.066835 143.349625 
L 206.248837 143.404503 
L 209.430838 142.772229 
L 212.612839 145.140202 
L 215.79484 146.182685 
L 218.976841 144.917626 
L 222.158843 146.148204 
L 225.340844 149.847215 
L 228.522845 149.326807 
L 231.704846 152.170702 
L 234.886848 150.834854 
L 238.068849 152.891653 
L 241.25085 149.753408 
L 244.432851 155.239191 
L 247.614852 151.089292 
L 250.796854 152.351915 
L 253.978855 154.992712 
L 257.160856 156.274408 
L 260.342857 156.274366 
L 263.524859 154.173566 
L 266.70686 158.062242 
L 269.888861 154.056194 
L 273.070862 157.963436 
L 276.252863 158.563653 
L 279.434865 155.68141 
L 282.616866 155.750983 
L 285.798867 158.0789 
L 288.980868 158.302611 
L 292.16287 158.848072 
L 295.344871 156.605054 
L 298.526872 159.704909 
L 301.708873 161.136543 
L 304.890874 160.527166 
L 308.072876 161.643692 
L 311.254877 162.27583 
L 314.436878 161.0664 
L 317.618879 164.507563 
L 320.80088 163.435287 
L 323.982882 163.599863 
L 327.164883 163.679144 
L 330.346884 166.302679 
L 333.528885 164.708465 
L 336.710887 165.454811 
L 339.892888 164.412202 
L 343.074889 163.182432 
L 346.25689 165.045839 
L 349.438891 164.170666 
L 352.620893 167.524985 
L 355.802894 164.989865 
L 358.984895 165.123394 
L 362.166896 162.713191 
L 365.348898 165.970185 
L 368.530899 165.666443 
L 371.7129 163.256188 
L 374.894901 166.314239 
L 378.076902 162.575858 
L 381.258904 162.879871 
L 384.440905 163.27536 
" clip-path="url(#pfeb41c048c)" style="fill: none; stroke: #1f77b4; stroke-width: 2; stroke-linecap: square"/>
   </g>
   <g id="line2d_30">
    <path d="M 69.422784 71.868109 
L 72.604785 113.897665 
L 75.786787 171.071244 
L 78.968788 188.180447 
L 82.150789 197.53933 
L 85.33279 208.395111 
L 88.514791 237.084181 
L 91.696793 236.801453 
L 94.878794 233.609755 
L 98.060795 225.743896 
L 101.242796 244.75182 
L 104.424798 260.741903 
L 107.606799 258.034184 
L 110.7888 263.055378 
L 113.970801 259.056162 
L 117.152802 274.156704 
L 120.334804 264.670209 
L 123.516805 282.166859 
L 126.698806 276.308008 
L 129.880807 269.678784 
L 133.062808 268.650408 
L 136.24481 277.557549 
L 139.426811 282.986556 
L 142.608812 285.32489 
L 145.790813 284.163384 
L 148.972815 285.77418 
L 152.154816 270.81057 
L 155.336817 265.902879 
L 158.518818 284.903039 
L 161.700819 283.754784 
L 164.882821 276.237783 
L 168.064822 279.860976 
L 171.246823 281.659241 
L 174.428824 286.241825 
L 177.610826 287.824059 
L 180.792827 297.780621 
L 183.974828 288.067503 
L 187.156829 291.260301 
L 190.33883 291.104548 
L 193.520832 300.095066 
L 196.702833 301.553416 
L 199.884834 288.300909 
L 203.066835 301.496785 
L 206.248837 300.464938 
L 209.430838 290.331905 
L 212.612839 289.494409 
L 215.79484 302.186263 
L 218.976841 303.16772 
L 222.158843 304.770102 
L 225.340844 308.025349 
L 228.522845 312.874871 
L 231.704846 306.781919 
L 234.886848 303.160821 
L 238.068849 320.422046 
L 241.25085 308.713559 
L 244.432851 317.533594 
L 247.614852 319.812999 
L 250.796854 319.189663 
L 253.978855 313.719304 
L 257.160856 318.616063 
L 260.342857 316.086782 
L 263.524859 322.500469 
L 266.70686 322.049961 
L 269.888861 324.829689 
L 273.070862 323.1016 
L 276.252863 319.857816 
L 279.434865 324.82635 
L 282.616866 330.032458 
L 285.798867 335.142599 
L 288.980868 331.170694 
L 292.16287 332.749179 
L 295.344871 334.059666 
L 298.526872 335.682567 
L 301.708873 337.266096 
L 304.890874 341.219127 
L 308.072876 333.960171 
L 311.254877 342.802944 
L 314.436878 339.903255 
L 317.618879 344.82938 
L 320.80088 343.23179 
L 323.982882 346.366361 
L 327.164883 350.611114 
L 330.346884 345.865176 
L 333.528885 350.465433 
L 336.710887 352.247138 
L 339.892888 353.417712 
L 343.074889 356.897911 
L 346.25689 355.006154 
L 349.438891 357.707699 
L 352.620893 356.094326 
L 355.802894 360.899647 
L 358.984895 359.871003 
L 362.166896 360.734689 
L 365.348898 359.946608 
L 368.530899 363.99629 
L 371.7129 361.875911 
L 374.894901 361.075848 
L 378.076902 362.477179 
L 381.258904 361.698406 
L 384.440905 363.490155 
" clip-path="url(#pfeb41c048c)" style="fill: none; stroke: #ff7f0e; stroke-width: 2; stroke-linecap: square"/>
   </g>
   <g id="line2d_31">
    <path d="M 69.422784 67.662866 
L 72.604785 122.298688 
L 75.786787 157.771037 
L 78.968788 188.43884 
L 82.150789 196.663387 
L 85.33279 220.652837 
L 88.514791 210.745261 
L 91.696793 220.51999 
L 94.878794 226.010425 
L 98.060795 250.447874 
L 101.242796 246.51763 
L 104.424798 240.245468 
L 107.606799 240.426283 
L 110.7888 252.40553 
L 113.970801 222.489947 
L 117.152802 253.241046 
L 120.334804 262.54925 
L 123.516805 265.231579 
L 126.698806 267.692286 
L 129.880807 265.856205 
L 133.062808 256.31792 
L 136.24481 273.51637 
L 139.426811 278.442824 
L 142.608812 282.009469 
L 145.790813 275.318402 
L 148.972815 262.308883 
L 152.154816 259.806902 
L 155.336817 268.688925 
L 158.518818 278.865713 
L 161.700819 281.311865 
L 164.882821 273.652287 
L 168.064822 287.231369 
L 171.246823 283.914839 
L 174.428824 295.151881 
L 177.610826 275.44634 
L 180.792827 287.466493 
L 183.974828 288.929194 
L 187.156829 280.030113 
L 190.33883 286.591005 
L 193.520832 286.24262 
L 196.702833 292.400887 
L 199.884834 272.451589 
L 203.066835 269.827811 
L 206.248837 286.323176 
L 209.430838 294.531508 
L 212.612839 297.986388 
L 222.158843 296.682464 
L 225.340844 300.144865 
L 228.522845 295.421152 
L 231.704846 272.754725 
L 234.886848 297.829872 
L 238.068849 290.871095 
L 241.25085 303.749319 
L 244.432851 305.939522 
L 247.614852 303.499452 
L 250.796854 303.88502 
L 253.978855 298.665645 
L 257.160856 299.642329 
L 260.342857 309.769979 
L 263.524859 305.790426 
L 266.70686 310.926986 
L 269.888861 304.127119 
L 273.070862 291.392705 
L 276.252863 308.260408 
L 279.434865 296.704565 
L 282.616866 302.535957 
L 285.798867 307.452899 
L 288.980868 304.184609 
L 292.16287 318.306126 
L 295.344871 302.575256 
L 298.526872 297.335002 
L 301.708873 311.891002 
L 304.890874 304.054313 
L 308.072876 305.032406 
L 311.254877 310.144764 
L 314.436878 292.850919 
L 317.618879 314.460286 
L 320.80088 320.21324 
L 323.982882 310.999825 
L 327.164883 317.558943 
L 330.346884 315.198363 
L 333.528885 316.281366 
L 336.710887 321.617739 
L 339.892888 319.703671 
L 343.074889 326.615002 
L 346.25689 322.151059 
L 349.438891 320.482501 
L 352.620893 320.966303 
L 355.802894 320.977729 
L 358.984895 314.27828 
L 362.166896 329.081926 
L 365.348898 332.031108 
L 368.530899 328.869391 
L 371.7129 329.139951 
L 374.894901 331.150484 
L 378.076902 320.346319 
L 381.258904 330.394262 
L 384.440905 320.492448 
L 387.622906 330.375951 
L 390.804907 333.038932 
L 393.986909 338.102796 
L 397.16891 334.688051 
L 400.350911 335.941332 
L 403.532912 333.586653 
L 406.714913 338.295343 
L 409.896915 338.787315 
L 413.078916 333.120507 
L 416.260917 336.997202 
L 419.442918 343.864922 
L 422.62492 343.409584 
L 425.806921 346.253672 
L 428.988922 344.639589 
L 432.170923 343.681402 
L 435.352924 343.275414 
L 438.534926 348.137917 
L 441.716927 351.574999 
L 444.898928 350.67282 
L 448.080929 346.899339 
L 451.262931 351.261771 
L 454.444932 347.792927 
L 457.626933 352.374727 
L 460.808934 350.108369 
L 463.990935 354.041288 
L 467.172937 351.527245 
L 470.354938 356.277139 
L 473.536939 356.696934 
L 476.71894 359.547773 
L 479.900942 359.331144 
L 483.082943 357.32112 
L 486.264944 355.723173 
L 489.446945 360.36576 
L 492.628946 361.164711 
L 495.810948 363.198452 
L 498.992949 364.194297 
L 502.17495 364.088074 
L 505.356951 365.349506 
L 508.538952 365.447008 
L 511.720954 360.627036 
L 514.902955 365.934653 
L 521.266957 364.601637 
L 524.448959 364.975217 
L 527.63096 364.99379 
L 530.812961 367.054176 
L 533.994962 365.070382 
L 537.176963 366.540196 
L 540.358965 365.591272 
L 543.540966 365.740613 
L 543.540966 365.740613 
" clip-path="url(#pfeb41c048c)" style="fill: none; stroke: #2ca02c; stroke-width: 2; stroke-linecap: square"/>
   </g>
   <g id="patch_3">
    <path d="M 45.716875 383.397812 
L 45.716875 23.837812 
" style="fill: none; stroke: #000000; stroke-width: 0.8; stroke-linejoin: miter; stroke-linecap: square"/>
   </g>
   <g id="patch_4">
    <path d="M 567.246875 383.397812 
L 567.246875 23.837812 
" style="fill: none; stroke: #000000; stroke-width: 0.8; stroke-linejoin: miter; stroke-linecap: square"/>
   </g>
   <g id="patch_5">
    <path d="M 45.716875 383.397812 
L 567.246875 383.397812 
" style="fill: none; stroke: #000000; stroke-width: 0.8; stroke-linejoin: miter; stroke-linecap: square"/>
   </g>
   <g id="patch_6">
    <path d="M 45.716875 23.837812 
L 567.246875 23.837812 
" style="fill: none; stroke: #000000; stroke-width: 0.8; stroke-linejoin: miter; stroke-linecap: square"/>
   </g>
   <g id="text_17">
    <!-- Training Progress - Loss -->
    <g transform="translate(211.772969 17.837812) scale(0.14 -0.14)">
     <defs>
      <path id="DejaVuSans-Bold-54" d="M 31 4666 
L 4331 4666 
L 4331 3756 
L 2784 3756 
L 2784 0 
L 1581 0 
L 1581 3756 
L 31 3756 
L 31 4666 
z
" transform="scale(0.015625)"/>
      <path id="DejaVuSans-Bold-72" d="M 3138 2547 
Q 2991 2616 2845 2648 
Q 2700 2681 2553 2681 
Q 2122 2681 1889 2404 
Q 1656 2128 1656 1613 
L 1656 0 
L 538 0 
L 538 3500 
L 1656 3500 
L 1656 2925 
Q 1872 3269 2151 3426 
Q 2431 3584 2822 3584 
Q 2878 3584 2943 3579 
Q 3009 3575 3134 3559 
L 3138 2547 
z
" transform="scale(0.015625)"/>
      <path id="DejaVuSans-Bold-67" d="M 2919 594 
Q 2688 288 2409 144 
Q 2131 0 1766 0 
Q 1125 0 706 504 
Q 288 1009 288 1791 
Q 288 2575 706 3076 
Q 1125 3578 1766 3578 
Q 2131 3578 2409 3434 
Q 2688 3291 2919 2981 
L 2919 3500 
L 4044 3500 
L 4044 353 
Q 4044 -491 3511 -936 
Q 2978 -1381 1966 -1381 
Q 1638 -1381 1331 -1331 
Q 1025 -1281 716 -1178 
L 716 -306 
Q 1009 -475 1290 -558 
Q 1572 -641 1856 -641 
Q 2406 -641 2662 -400 
Q 2919 -159 2919 353 
L 2919 594 
z
M 2181 2772 
Q 1834 2772 1640 2515 
Q 1447 2259 1447 1791 
Q 1447 1309 1634 1061 
Q 1822 813 2181 813 
Q 2531 813 2725 1069 
Q 2919 1325 2919 1791 
Q 2919 2259 2725 2515 
Q 2531 2772 2181 2772 
z
" transform="scale(0.015625)"/>
      <path id="DejaVuSans-Bold-50" d="M 588 4666 
L 2584 4666 
Q 3475 4666 3951 4270 
Q 4428 3875 4428 3144 
Q 4428 2409 3951 2014 
Q 3475 1619 2584 1619 
L 1791 1619 
L 1791 0 
L 588 0 
L 588 4666 
z
M 1791 3794 
L 1791 2491 
L 2456 2491 
Q 2806 2491 2997 2661 
Q 3188 2831 3188 3144 
Q 3188 3456 2997 3625 
Q 2806 3794 2456 3794 
L 1791 3794 
z
" transform="scale(0.015625)"/>
      <path id="DejaVuSans-Bold-65" d="M 4031 1759 
L 4031 1441 
L 1416 1441 
Q 1456 1047 1700 850 
Q 1944 653 2381 653 
Q 2734 653 3104 758 
Q 3475 863 3866 1075 
L 3866 213 
Q 3469 63 3072 -14 
Q 2675 -91 2278 -91 
Q 1328 -91 801 392 
Q 275 875 275 1747 
Q 275 2603 792 3093 
Q 1309 3584 2216 3584 
Q 3041 3584 3536 3087 
Q 4031 2591 4031 1759 
z
M 2881 2131 
Q 2881 2450 2695 2645 
Q 2509 2841 2209 2841 
Q 1884 2841 1681 2658 
Q 1478 2475 1428 2131 
L 2881 2131 
z
" transform="scale(0.015625)"/>
      <path id="DejaVuSans-Bold-2d" d="M 347 2297 
L 2309 2297 
L 2309 1388 
L 347 1388 
L 347 2297 
z
" transform="scale(0.015625)"/>
     </defs>
     <use xlink:href="#DejaVuSans-Bold-54"/>
     <use xlink:href="#DejaVuSans-Bold-72" transform="translate(57.212891 0)"/>
     <use xlink:href="#DejaVuSans-Bold-61" transform="translate(106.529297 0)"/>
     <use xlink:href="#DejaVuSans-Bold-69" transform="translate(174.009766 0)"/>
     <use xlink:href="#DejaVuSans-Bold-6e" transform="translate(208.287109 0)"/>
     <use xlink:href="#DejaVuSans-Bold-69" transform="translate(279.478516 0)"/>
     <use xlink:href="#DejaVuSans-Bold-6e" transform="translate(313.755859 0)"/>
     <use xlink:href="#DejaVuSans-Bold-67" transform="translate(384.947266 0)"/>
     <use xlink:href="#DejaVuSans-Bold-20" transform="translate(456.529297 0)"/>
     <use xlink:href="#DejaVuSans-Bold-50" transform="translate(491.34375 0)"/>
     <use xlink:href="#DejaVuSans-Bold-72" transform="translate(564.634766 0)"/>
     <use xlink:href="#DejaVuSans-Bold-6f" transform="translate(613.951172 0)"/>
     <use xlink:href="#DejaVuSans-Bold-67" transform="translate(682.652344 0)"/>
     <use xlink:href="#DejaVuSans-Bold-72" transform="translate(754.234375 0)"/>
     <use xlink:href="#DejaVuSans-Bold-65" transform="translate(803.550781 0)"/>
     <use xlink:href="#DejaVuSans-Bold-73" transform="translate(871.373047 0)"/>
     <use xlink:href="#DejaVuSans-Bold-73" transform="translate(930.894531 0)"/>
     <use xlink:href="#DejaVuSans-Bold-20" transform="translate(990.416016 0)"/>
     <use xlink:href="#DejaVuSans-Bold-2d" transform="translate(1025.230469 0)"/>
     <use xlink:href="#DejaVuSans-Bold-20" transform="translate(1066.734375 0)"/>
     <use xlink:href="#DejaVuSans-Bold-4c" transform="translate(1101.548828 0)"/>
     <use xlink:href="#DejaVuSans-Bold-6f" transform="translate(1165.269531 0)"/>
     <use xlink:href="#DejaVuSans-Bold-73" transform="translate(1233.970703 0)"/>
     <use xlink:href="#DejaVuSans-Bold-73" transform="translate(1293.492188 0)"/>
    </g>
   </g>
   <g id="legend_1">
    <g id="patch_7">
     <path d="M 445.715625 75.872187 
L 560.246875 75.872187 
Q 562.246875 75.872187 562.246875 73.872187 
L 562.246875 30.837812 
Q 562.246875 28.837812 560.246875 28.837812 
L 445.715625 28.837812 
Q 443.715625 28.837812 443.715625 30.837812 
L 443.715625 73.872187 
Q 443.715625 75.872187 445.715625 75.872187 
z
" style="fill: #ffffff; opacity: 0.8; stroke: #cccccc; stroke-linejoin: miter"/>
    </g>
    <g id="line2d_32">
     <path d="M 447.715625 36.93625 
L 457.715625 36.93625 
L 467.715625 36.93625 
" style="fill: none; stroke: #1f77b4; stroke-width: 2; stroke-linecap: square"/>
    </g>
    <g id="text_18">
     <!-- MLP-Best -->
     <g transform="translate(475.715625 40.43625) scale(0.1 -0.1)">
      <defs>
       <path id="DejaVuSans-4d" d="M 628 4666 
L 1569 4666 
L 2759 1491 
L 3956 4666 
L 4897 4666 
L 4897 0 
L 4281 0 
L 4281 4097 
L 3078 897 
L 2444 897 
L 1241 4097 
L 1241 0 
L 628 0 
L 628 4666 
z
" transform="scale(0.015625)"/>
       <path id="DejaVuSans-4c" d="M 628 4666 
L 1259 4666 
L 1259 531 
L 3531 531 
L 3531 0 
L 628 0 
L 628 4666 
z
" transform="scale(0.015625)"/>
       <path id="DejaVuSans-50" d="M 1259 4147 
L 1259 2394 
L 2053 2394 
Q 2494 2394 2734 2622 
Q 2975 2850 2975 3272 
Q 2975 3691 2734 3919 
Q 2494 4147 2053 4147 
L 1259 4147 
z
M 628 4666 
L 2053 4666 
Q 2838 4666 3239 4311 
Q 3641 3956 3641 3272 
Q 3641 2581 3239 2228 
Q 2838 1875 2053 1875 
L 1259 1875 
L 1259 0 
L 628 0 
L 628 4666 
z
" transform="scale(0.015625)"/>
       <path id="DejaVuSans-2d" d="M 313 2009 
L 1997 2009 
L 1997 1497 
L 313 1497 
L 313 2009 
z
" transform="scale(0.015625)"/>
       <path id="DejaVuSans-42" d="M 1259 2228 
L 1259 519 
L 2272 519 
Q 2781 519 3026 730 
Q 3272 941 3272 1375 
Q 3272 1813 3026 2020 
Q 2781 2228 2272 2228 
L 1259 2228 
z
M 1259 4147 
L 1259 2741 
L 2194 2741 
Q 2656 2741 2882 2914 
Q 3109 3088 3109 3444 
Q 3109 3797 2882 3972 
Q 2656 4147 2194 4147 
L 1259 4147 
z
M 628 4666 
L 2241 4666 
Q 2963 4666 3353 4366 
Q 3744 4066 3744 3513 
Q 3744 3084 3544 2831 
Q 3344 2578 2956 2516 
Q 3422 2416 3680 2098 
Q 3938 1781 3938 1306 
Q 3938 681 3513 340 
Q 3088 0 2303 0 
L 628 0 
L 628 4666 
z
" transform="scale(0.015625)"/>
       <path id="DejaVuSans-65" d="M 3597 1894 
L 3597 1613 
L 953 1613 
Q 991 1019 1311 708 
Q 1631 397 2203 397 
Q 2534 397 2845 478 
Q 3156 559 3463 722 
L 3463 178 
Q 3153 47 2828 -22 
Q 2503 -91 2169 -91 
Q 1331 -91 842 396 
Q 353 884 353 1716 
Q 353 2575 817 3079 
Q 1281 3584 2069 3584 
Q 2775 3584 3186 3129 
Q 3597 2675 3597 1894 
z
M 3022 2063 
Q 3016 2534 2758 2815 
Q 2500 3097 2075 3097 
Q 1594 3097 1305 2825 
Q 1016 2553 972 2059 
L 3022 2063 
z
" transform="scale(0.015625)"/>
       <path id="DejaVuSans-73" d="M 2834 3397 
L 2834 2853 
Q 2591 2978 2328 3040 
Q 2066 3103 1784 3103 
Q 1356 3103 1142 2972 
Q 928 2841 928 2578 
Q 928 2378 1081 2264 
Q 1234 2150 1697 2047 
L 1894 2003 
Q 2506 1872 2764 1633 
Q 3022 1394 3022 966 
Q 3022 478 2636 193 
Q 2250 -91 1575 -91 
Q 1294 -91 989 -36 
Q 684 19 347 128 
L 347 722 
Q 666 556 975 473 
Q 1284 391 1588 391 
Q 1994 391 2212 530 
Q 2431 669 2431 922 
Q 2431 1156 2273 1281 
Q 2116 1406 1581 1522 
L 1381 1569 
Q 847 1681 609 1914 
Q 372 2147 372 2553 
Q 372 3047 722 3315 
Q 1072 3584 1716 3584 
Q 2034 3584 2315 3537 
Q 2597 3491 2834 3397 
z
" transform="scale(0.015625)"/>
       <path id="DejaVuSans-74" d="M 1172 4494 
L 1172 3500 
L 2356 3500 
L 2356 3053 
L 1172 3053 
L 1172 1153 
Q 1172 725 1289 603 
Q 1406 481 1766 481 
L 2356 481 
L 2356 0 
L 1766 0 
Q 1100 0 847 248 
Q 594 497 594 1153 
L 594 3053 
L 172 3053 
L 172 3500 
L 594 3500 
L 594 4494 
L 1172 4494 
z
" transform="scale(0.015625)"/>
      </defs>
      <use xlink:href="#DejaVuSans-4d"/>
      <use xlink:href="#DejaVuSans-4c" transform="translate(86.279297 0)"/>
      <use xlink:href="#DejaVuSans-50" transform="translate(141.992188 0)"/>
      <use xlink:href="#DejaVuSans-2d" transform="translate(200.044922 0)"/>
      <use xlink:href="#DejaVuSans-42" transform="translate(232.503906 0)"/>
      <use xlink:href="#DejaVuSans-65" transform="translate(301.107422 0)"/>
      <use xlink:href="#DejaVuSans-73" transform="translate(362.630859 0)"/>
      <use xlink:href="#DejaVuSans-74" transform="translate(414.730469 0)"/>
     </g>
    </g>
    <g id="line2d_33">
     <path d="M 447.715625 51.614375 
L 457.715625 51.614375 
L 467.715625 51.614375 
" style="fill: none; stroke: #ff7f0e; stroke-width: 2; stroke-linecap: square"/>
    </g>
    <g id="text_19">
     <!-- CNN-Best-100ep -->
     <g transform="translate(475.715625 55.114375) scale(0.1 -0.1)">
      <defs>
       <path id="DejaVuSans-43" d="M 4122 4306 
L 4122 3641 
Q 3803 3938 3442 4084 
Q 3081 4231 2675 4231 
Q 1875 4231 1450 3742 
Q 1025 3253 1025 2328 
Q 1025 1406 1450 917 
Q 1875 428 2675 428 
Q 3081 428 3442 575 
Q 3803 722 4122 1019 
L 4122 359 
Q 3791 134 3420 21 
Q 3050 -91 2638 -91 
Q 1578 -91 968 557 
Q 359 1206 359 2328 
Q 359 3453 968 4101 
Q 1578 4750 2638 4750 
Q 3056 4750 3426 4639 
Q 3797 4528 4122 4306 
z
" transform="scale(0.015625)"/>
       <path id="DejaVuSans-4e" d="M 628 4666 
L 1478 4666 
L 3547 763 
L 3547 4666 
L 4159 4666 
L 4159 0 
L 3309 0 
L 1241 3903 
L 1241 0 
L 628 0 
L 628 4666 
z
" transform="scale(0.015625)"/>
       <path id="DejaVuSans-70" d="M 1159 525 
L 1159 -1331 
L 581 -1331 
L 581 3500 
L 1159 3500 
L 1159 2969 
Q 1341 3281 1617 3432 
Q 1894 3584 2278 3584 
Q 2916 3584 3314 3078 
Q 3713 2572 3713 1747 
Q 3713 922 3314 415 
Q 2916 -91 2278 -91 
Q 1894 -91 1617 61 
Q 1341 213 1159 525 
z
M 3116 1747 
Q 3116 2381 2855 2742 
Q 2594 3103 2138 3103 
Q 1681 3103 1420 2742 
Q 1159 2381 1159 1747 
Q 1159 1113 1420 752 
Q 1681 391 2138 391 
Q 2594 391 2855 752 
Q 3116 1113 3116 1747 
z
" transform="scale(0.015625)"/>
      </defs>
      <use xlink:href="#DejaVuSans-43"/>
      <use xlink:href="#DejaVuSans-4e" transform="translate(69.824219 0)"/>
      <use xlink:href="#DejaVuSans-4e" transform="translate(144.628906 0)"/>
      <use xlink:href="#DejaVuSans-2d" transform="translate(219.433594 0)"/>
      <use xlink:href="#DejaVuSans-42" transform="translate(251.892578 0)"/>
      <use xlink:href="#DejaVuSans-65" transform="translate(320.496094 0)"/>
      <use xlink:href="#DejaVuSans-73" transform="translate(382.019531 0)"/>
      <use xlink:href="#DejaVuSans-74" transform="translate(434.119141 0)"/>
      <use xlink:href="#DejaVuSans-2d" transform="translate(473.328125 0)"/>
      <use xlink:href="#DejaVuSans-31" transform="translate(509.412109 0)"/>
      <use xlink:href="#DejaVuSans-30" transform="translate(573.035156 0)"/>
      <use xlink:href="#DejaVuSans-30" transform="translate(636.658203 0)"/>
      <use xlink:href="#DejaVuSans-65" transform="translate(700.28125 0)"/>
      <use xlink:href="#DejaVuSans-70" transform="translate(761.804688 0)"/>
     </g>
    </g>
    <g id="line2d_34">
     <path d="M 447.715625 66.2925 
L 457.715625 66.2925 
L 467.715625 66.2925 
" style="fill: none; stroke: #2ca02c; stroke-width: 2; stroke-linecap: square"/>
    </g>
    <g id="text_20">
     <!-- CNN-Best-150ep -->
     <g transform="translate(475.715625 69.7925) scale(0.1 -0.1)">
      <defs>
       <path id="DejaVuSans-35" d="M 691 4666 
L 3169 4666 
L 3169 4134 
L 1269 4134 
L 1269 2991 
Q 1406 3038 1543 3061 
Q 1681 3084 1819 3084 
Q 2600 3084 3056 2656 
Q 3513 2228 3513 1497 
Q 3513 744 3044 326 
Q 2575 -91 1722 -91 
Q 1428 -91 1123 -41 
Q 819 9 494 109 
L 494 744 
Q 775 591 1075 516 
Q 1375 441 1709 441 
Q 2250 441 2565 725 
Q 2881 1009 2881 1497 
Q 2881 1984 2565 2268 
Q 2250 2553 1709 2553 
Q 1456 2553 1204 2497 
Q 953 2441 691 2322 
L 691 4666 
z
" transform="scale(0.015625)"/>
      </defs>
      <use xlink:href="#DejaVuSans-43"/>
      <use xlink:href="#DejaVuSans-4e" transform="translate(69.824219 0)"/>
      <use xlink:href="#DejaVuSans-4e" transform="translate(144.628906 0)"/>
      <use xlink:href="#DejaVuSans-2d" transform="translate(219.433594 0)"/>
      <use xlink:href="#DejaVuSans-42" transform="translate(251.892578 0)"/>
      <use xlink:href="#DejaVuSans-65" transform="translate(320.496094 0)"/>
      <use xlink:href="#DejaVuSans-73" transform="translate(382.019531 0)"/>
      <use xlink:href="#DejaVuSans-74" transform="translate(434.119141 0)"/>
      <use xlink:href="#DejaVuSans-2d" transform="translate(473.328125 0)"/>
      <use xlink:href="#DejaVuSans-31" transform="translate(509.412109 0)"/>
      <use xlink:href="#DejaVuSans-35" transform="translate(573.035156 0)"/>
      <use xlink:href="#DejaVuSans-30" transform="translate(636.658203 0)"/>
      <use xlink:href="#DejaVuSans-65" transform="translate(700.28125 0)"/>
      <use xlink:href="#DejaVuSans-70" transform="translate(761.804688 0)"/>
     </g>
    </g>
   </g>
  </g>
  <g id="axes_2">
   <g id="patch_8">
    <path d="M 614.696875 383.397812 
L 1136.226875 383.397812 
L 1136.226875 23.837812 
L 614.696875 23.837812 
z
" style="fill: #ffffff"/>
   </g>
   <g id="matplotlib.axis_3">
    <g id="xtick_9">
     <g id="line2d_35">
      <path d="M 635.220783 383.397812 
L 635.220783 23.837812 
" clip-path="url(#pcab6d8f4f5)" style="fill: none; stroke: #b0b0b0; stroke-opacity: 0.3; stroke-width: 0.8; stroke-linecap: square"/>
     </g>
     <g id="line2d_36">
      <g>
       <use xlink:href="#mf01cb9da88" x="635.220783" y="383.397812" style="stroke: #000000; stroke-width: 0.8"/>
      </g>
     </g>
     <g id="text_21">
      <!-- 0 -->
      <g transform="translate(632.039533 397.99625) scale(0.1 -0.1)">
       <use xlink:href="#DejaVuSans-30"/>
      </g>
     </g>
    </g>
    <g id="xtick_10">
     <g id="line2d_37">
      <path d="M 698.860807 383.397812 
L 698.860807 23.837812 
" clip-path="url(#pcab6d8f4f5)" style="fill: none; stroke: #b0b0b0; stroke-opacity: 0.3; stroke-width: 0.8; stroke-linecap: square"/>
     </g>
     <g id="line2d_38">
      <g>
       <use xlink:href="#mf01cb9da88" x="698.860807" y="383.397812" style="stroke: #000000; stroke-width: 0.8"/>
      </g>
     </g>
     <g id="text_22">
      <!-- 20 -->
      <g transform="translate(692.498307 397.99625) scale(0.1 -0.1)">
       <use xlink:href="#DejaVuSans-32"/>
       <use xlink:href="#DejaVuSans-30" transform="translate(63.623047 0)"/>
      </g>
     </g>
    </g>
    <g id="xtick_11">
     <g id="line2d_39">
      <path d="M 762.500832 383.397812 
L 762.500832 23.837812 
" clip-path="url(#pcab6d8f4f5)" style="fill: none; stroke: #b0b0b0; stroke-opacity: 0.3; stroke-width: 0.8; stroke-linecap: square"/>
     </g>
     <g id="line2d_40">
      <g>
       <use xlink:href="#mf01cb9da88" x="762.500832" y="383.397812" style="stroke: #000000; stroke-width: 0.8"/>
      </g>
     </g>
     <g id="text_23">
      <!-- 40 -->
      <g transform="translate(756.138332 397.99625) scale(0.1 -0.1)">
       <use xlink:href="#DejaVuSans-34"/>
       <use xlink:href="#DejaVuSans-30" transform="translate(63.623047 0)"/>
      </g>
     </g>
    </g>
    <g id="xtick_12">
     <g id="line2d_41">
      <path d="M 826.140856 383.397812 
L 826.140856 23.837812 
" clip-path="url(#pcab6d8f4f5)" style="fill: none; stroke: #b0b0b0; stroke-opacity: 0.3; stroke-width: 0.8; stroke-linecap: square"/>
     </g>
     <g id="line2d_42">
      <g>
       <use xlink:href="#mf01cb9da88" x="826.140856" y="383.397812" style="stroke: #000000; stroke-width: 0.8"/>
      </g>
     </g>
     <g id="text_24">
      <!-- 60 -->
      <g transform="translate(819.778356 397.99625) scale(0.1 -0.1)">
       <use xlink:href="#DejaVuSans-36"/>
       <use xlink:href="#DejaVuSans-30" transform="translate(63.623047 0)"/>
      </g>
     </g>
    </g>
    <g id="xtick_13">
     <g id="line2d_43">
      <path d="M 889.78088 383.397812 
L 889.78088 23.837812 
" clip-path="url(#pcab6d8f4f5)" style="fill: none; stroke: #b0b0b0; stroke-opacity: 0.3; stroke-width: 0.8; stroke-linecap: square"/>
     </g>
     <g id="line2d_44">
      <g>
       <use xlink:href="#mf01cb9da88" x="889.78088" y="383.397812" style="stroke: #000000; stroke-width: 0.8"/>
      </g>
     </g>
     <g id="text_25">
      <!-- 80 -->
      <g transform="translate(883.41838 397.99625) scale(0.1 -0.1)">
       <use xlink:href="#DejaVuSans-38"/>
       <use xlink:href="#DejaVuSans-30" transform="translate(63.623047 0)"/>
      </g>
     </g>
    </g>
    <g id="xtick_14">
     <g id="line2d_45">
      <path d="M 953.420905 383.397812 
L 953.420905 23.837812 
" clip-path="url(#pcab6d8f4f5)" style="fill: none; stroke: #b0b0b0; stroke-opacity: 0.3; stroke-width: 0.8; stroke-linecap: square"/>
     </g>
     <g id="line2d_46">
      <g>
       <use xlink:href="#mf01cb9da88" x="953.420905" y="383.397812" style="stroke: #000000; stroke-width: 0.8"/>
      </g>
     </g>
     <g id="text_26">
      <!-- 100 -->
      <g transform="translate(943.877155 397.99625) scale(0.1 -0.1)">
       <use xlink:href="#DejaVuSans-31"/>
       <use xlink:href="#DejaVuSans-30" transform="translate(63.623047 0)"/>
       <use xlink:href="#DejaVuSans-30" transform="translate(127.246094 0)"/>
      </g>
     </g>
    </g>
    <g id="xtick_15">
     <g id="line2d_47">
      <path d="M 1017.060929 383.397812 
L 1017.060929 23.837812 
" clip-path="url(#pcab6d8f4f5)" style="fill: none; stroke: #b0b0b0; stroke-opacity: 0.3; stroke-width: 0.8; stroke-linecap: square"/>
     </g>
     <g id="line2d_48">
      <g>
       <use xlink:href="#mf01cb9da88" x="1017.060929" y="383.397812" style="stroke: #000000; stroke-width: 0.8"/>
      </g>
     </g>
     <g id="text_27">
      <!-- 120 -->
      <g transform="translate(1007.517179 397.99625) scale(0.1 -0.1)">
       <use xlink:href="#DejaVuSans-31"/>
       <use xlink:href="#DejaVuSans-32" transform="translate(63.623047 0)"/>
       <use xlink:href="#DejaVuSans-30" transform="translate(127.246094 0)"/>
      </g>
     </g>
    </g>
    <g id="xtick_16">
     <g id="line2d_49">
      <path d="M 1080.700954 383.397812 
L 1080.700954 23.837812 
" clip-path="url(#pcab6d8f4f5)" style="fill: none; stroke: #b0b0b0; stroke-opacity: 0.3; stroke-width: 0.8; stroke-linecap: square"/>
     </g>
     <g id="line2d_50">
      <g>
       <use xlink:href="#mf01cb9da88" x="1080.700954" y="383.397812" style="stroke: #000000; stroke-width: 0.8"/>
      </g>
     </g>
     <g id="text_28">
      <!-- 140 -->
      <g transform="translate(1071.157204 397.99625) scale(0.1 -0.1)">
       <use xlink:href="#DejaVuSans-31"/>
       <use xlink:href="#DejaVuSans-34" transform="translate(63.623047 0)"/>
       <use xlink:href="#DejaVuSans-30" transform="translate(127.246094 0)"/>
      </g>
     </g>
    </g>
    <g id="text_29">
     <!-- Epoch -->
     <g transform="translate(855.118125 413.194062) scale(0.12 -0.12)">
      <use xlink:href="#DejaVuSans-Bold-45"/>
      <use xlink:href="#DejaVuSans-Bold-70" transform="translate(68.310547 0)"/>
      <use xlink:href="#DejaVuSans-Bold-6f" transform="translate(139.892578 0)"/>
      <use xlink:href="#DejaVuSans-Bold-63" transform="translate(208.59375 0)"/>
      <use xlink:href="#DejaVuSans-Bold-68" transform="translate(267.871094 0)"/>
     </g>
    </g>
   </g>
   <g id="matplotlib.axis_4">
    <g id="ytick_7">
     <g id="line2d_51">
      <path d="M 614.696875 340.941997 
L 1136.226875 340.941997 
" clip-path="url(#pcab6d8f4f5)" style="fill: none; stroke: #b0b0b0; stroke-opacity: 0.3; stroke-width: 0.8; stroke-linecap: square"/>
     </g>
     <g id="line2d_52">
      <g>
       <use xlink:href="#mdc67eb4b13" x="614.696875" y="340.941997" style="stroke: #000000; stroke-width: 0.8"/>
      </g>
     </g>
     <g id="text_30">
      <!-- 40 -->
      <g transform="translate(594.971875 344.741216) scale(0.1 -0.1)">
       <use xlink:href="#DejaVuSans-34"/>
       <use xlink:href="#DejaVuSans-30" transform="translate(63.623047 0)"/>
      </g>
     </g>
    </g>
    <g id="ytick_8">
     <g id="line2d_53">
      <path d="M 614.696875 282.130783 
L 1136.226875 282.130783 
" clip-path="url(#pcab6d8f4f5)" style="fill: none; stroke: #b0b0b0; stroke-opacity: 0.3; stroke-width: 0.8; stroke-linecap: square"/>
     </g>
     <g id="line2d_54">
      <g>
       <use xlink:href="#mdc67eb4b13" x="614.696875" y="282.130783" style="stroke: #000000; stroke-width: 0.8"/>
      </g>
     </g>
     <g id="text_31">
      <!-- 50 -->
      <g transform="translate(594.971875 285.930002) scale(0.1 -0.1)">
       <use xlink:href="#DejaVuSans-35"/>
       <use xlink:href="#DejaVuSans-30" transform="translate(63.623047 0)"/>
      </g>
     </g>
    </g>
    <g id="ytick_9">
     <g id="line2d_55">
      <path d="M 614.696875 223.319569 
L 1136.226875 223.319569 
" clip-path="url(#pcab6d8f4f5)" style="fill: none; stroke: #b0b0b0; stroke-opacity: 0.3; stroke-width: 0.8; stroke-linecap: square"/>
     </g>
     <g id="line2d_56">
      <g>
       <use xlink:href="#mdc67eb4b13" x="614.696875" y="223.319569" style="stroke: #000000; stroke-width: 0.8"/>
      </g>
     </g>
     <g id="text_32">
      <!-- 60 -->
      <g transform="translate(594.971875 227.118788) scale(0.1 -0.1)">
       <use xlink:href="#DejaVuSans-36"/>
       <use xlink:href="#DejaVuSans-30" transform="translate(63.623047 0)"/>
      </g>
     </g>
    </g>
    <g id="ytick_10">
     <g id="line2d_57">
      <path d="M 614.696875 164.508355 
L 1136.226875 164.508355 
" clip-path="url(#pcab6d8f4f5)" style="fill: none; stroke: #b0b0b0; stroke-opacity: 0.3; stroke-width: 0.8; stroke-linecap: square"/>
     </g>
     <g id="line2d_58">
      <g>
       <use xlink:href="#mdc67eb4b13" x="614.696875" y="164.508355" style="stroke: #000000; stroke-width: 0.8"/>
      </g>
     </g>
     <g id="text_33">
      <!-- 70 -->
      <g transform="translate(594.971875 168.307574) scale(0.1 -0.1)">
       <defs>
        <path id="DejaVuSans-37" d="M 525 4666 
L 3525 4666 
L 3525 4397 
L 1831 0 
L 1172 0 
L 2766 4134 
L 525 4134 
L 525 4666 
z
" transform="scale(0.015625)"/>
       </defs>
       <use xlink:href="#DejaVuSans-37"/>
       <use xlink:href="#DejaVuSans-30" transform="translate(63.623047 0)"/>
      </g>
     </g>
    </g>
    <g id="ytick_11">
     <g id="line2d_59">
      <path d="M 614.696875 105.697141 
L 1136.226875 105.697141 
" clip-path="url(#pcab6d8f4f5)" style="fill: none; stroke: #b0b0b0; stroke-opacity: 0.3; stroke-width: 0.8; stroke-linecap: square"/>
     </g>
     <g id="line2d_60">
      <g>
       <use xlink:href="#mdc67eb4b13" x="614.696875" y="105.697141" style="stroke: #000000; stroke-width: 0.8"/>
      </g>
     </g>
     <g id="text_34">
      <!-- 80 -->
      <g transform="translate(594.971875 109.49636) scale(0.1 -0.1)">
       <use xlink:href="#DejaVuSans-38"/>
       <use xlink:href="#DejaVuSans-30" transform="translate(63.623047 0)"/>
      </g>
     </g>
    </g>
    <g id="ytick_12">
     <g id="line2d_61">
      <path d="M 614.696875 46.885927 
L 1136.226875 46.885927 
" clip-path="url(#pcab6d8f4f5)" style="fill: none; stroke: #b0b0b0; stroke-opacity: 0.3; stroke-width: 0.8; stroke-linecap: square"/>
     </g>
     <g id="line2d_62">
      <g>
       <use xlink:href="#mdc67eb4b13" x="614.696875" y="46.885927" style="stroke: #000000; stroke-width: 0.8"/>
      </g>
     </g>
     <g id="text_35">
      <!-- 90 -->
      <g transform="translate(594.971875 50.685146) scale(0.1 -0.1)">
       <defs>
        <path id="DejaVuSans-39" d="M 703 97 
L 703 672 
Q 941 559 1184 500 
Q 1428 441 1663 441 
Q 2288 441 2617 861 
Q 2947 1281 2994 2138 
Q 2813 1869 2534 1725 
Q 2256 1581 1919 1581 
Q 1219 1581 811 2004 
Q 403 2428 403 3163 
Q 403 3881 828 4315 
Q 1253 4750 1959 4750 
Q 2769 4750 3195 4129 
Q 3622 3509 3622 2328 
Q 3622 1225 3098 567 
Q 2575 -91 1691 -91 
Q 1453 -91 1209 -44 
Q 966 3 703 97 
z
M 1959 2075 
Q 2384 2075 2632 2365 
Q 2881 2656 2881 3163 
Q 2881 3666 2632 3958 
Q 2384 4250 1959 4250 
Q 1534 4250 1286 3958 
Q 1038 3666 1038 3163 
Q 1038 2656 1286 2365 
Q 1534 2075 1959 2075 
z
" transform="scale(0.015625)"/>
       </defs>
       <use xlink:href="#DejaVuSans-39"/>
       <use xlink:href="#DejaVuSans-30" transform="translate(63.623047 0)"/>
      </g>
     </g>
    </g>
    <g id="text_36">
     <!-- Validation Accuracy (%) -->
     <g transform="translate(588.3825 283.934375) rotate(-90) scale(0.12 -0.12)">
      <defs>
       <path id="DejaVuSans-Bold-41" d="M 3419 850 
L 1538 850 
L 1241 0 
L 31 0 
L 1759 4666 
L 3194 4666 
L 4922 0 
L 3713 0 
L 3419 850 
z
M 1838 1716 
L 3116 1716 
L 2478 3572 
L 1838 1716 
z
" transform="scale(0.015625)"/>
       <path id="DejaVuSans-Bold-75" d="M 500 1363 
L 500 3500 
L 1625 3500 
L 1625 3150 
Q 1625 2866 1622 2436 
Q 1619 2006 1619 1863 
Q 1619 1441 1641 1255 
Q 1663 1069 1716 984 
Q 1784 875 1895 815 
Q 2006 756 2150 756 
Q 2500 756 2700 1025 
Q 2900 1294 2900 1772 
L 2900 3500 
L 4019 3500 
L 4019 0 
L 2900 0 
L 2900 506 
Q 2647 200 2364 54 
Q 2081 -91 1741 -91 
Q 1134 -91 817 281 
Q 500 653 500 1363 
z
" transform="scale(0.015625)"/>
       <path id="DejaVuSans-Bold-79" d="M 78 3500 
L 1197 3500 
L 2138 1125 
L 2938 3500 
L 4056 3500 
L 2584 -331 
Q 2363 -916 2067 -1148 
Q 1772 -1381 1288 -1381 
L 641 -1381 
L 641 -647 
L 991 -647 
Q 1275 -647 1404 -556 
Q 1534 -466 1606 -231 
L 1638 -134 
L 78 3500 
z
" transform="scale(0.015625)"/>
       <path id="DejaVuSans-Bold-28" d="M 2413 -844 
L 1484 -844 
Q 1006 -72 778 623 
Q 550 1319 550 2003 
Q 550 2688 779 3389 
Q 1009 4091 1484 4856 
L 2413 4856 
Q 2013 4116 1813 3408 
Q 1613 2700 1613 2009 
Q 1613 1319 1811 609 
Q 2009 -100 2413 -844 
z
" transform="scale(0.015625)"/>
       <path id="DejaVuSans-Bold-25" d="M 4959 1925 
Q 4738 1925 4616 1733 
Q 4494 1541 4494 1184 
Q 4494 825 4614 633 
Q 4734 441 4959 441 
Q 5184 441 5303 633 
Q 5422 825 5422 1184 
Q 5422 1541 5301 1733 
Q 5181 1925 4959 1925 
z
M 4959 2450 
Q 5541 2450 5875 2112 
Q 6209 1775 6209 1184 
Q 6209 594 5875 251 
Q 5541 -91 4959 -91 
Q 4378 -91 4042 251 
Q 3706 594 3706 1184 
Q 3706 1772 4042 2111 
Q 4378 2450 4959 2450 
z
M 2094 -91 
L 1403 -91 
L 4319 4750 
L 5013 4750 
L 2094 -91 
z
M 1453 4750 
Q 2034 4750 2367 4411 
Q 2700 4072 2700 3481 
Q 2700 2891 2367 2550 
Q 2034 2209 1453 2209 
Q 872 2209 539 2550 
Q 206 2891 206 3481 
Q 206 4072 539 4411 
Q 872 4750 1453 4750 
z
M 1453 4225 
Q 1228 4225 1106 4031 
Q 984 3838 984 3481 
Q 984 3122 1106 2926 
Q 1228 2731 1453 2731 
Q 1678 2731 1798 2926 
Q 1919 3122 1919 3481 
Q 1919 3838 1797 4031 
Q 1675 4225 1453 4225 
z
" transform="scale(0.015625)"/>
       <path id="DejaVuSans-Bold-29" d="M 513 -844 
Q 913 -100 1113 609 
Q 1313 1319 1313 2009 
Q 1313 2700 1113 3408 
Q 913 4116 513 4856 
L 1441 4856 
Q 1916 4091 2145 3389 
Q 2375 2688 2375 2003 
Q 2375 1319 2147 623 
Q 1919 -72 1441 -844 
L 513 -844 
z
" transform="scale(0.015625)"/>
      </defs>
      <use xlink:href="#DejaVuSans-Bold-56"/>
      <use xlink:href="#DejaVuSans-Bold-61" transform="translate(71.892578 0)"/>
      <use xlink:href="#DejaVuSans-Bold-6c" transform="translate(139.373047 0)"/>
      <use xlink:href="#DejaVuSans-Bold-69" transform="translate(173.650391 0)"/>
      <use xlink:href="#DejaVuSans-Bold-64" transform="translate(207.927734 0)"/>
      <use xlink:href="#DejaVuSans-Bold-61" transform="translate(279.509766 0)"/>
      <use xlink:href="#DejaVuSans-Bold-74" transform="translate(346.990234 0)"/>
      <use xlink:href="#DejaVuSans-Bold-69" transform="translate(394.792969 0)"/>
      <use xlink:href="#DejaVuSans-Bold-6f" transform="translate(429.070312 0)"/>
      <use xlink:href="#DejaVuSans-Bold-6e" transform="translate(497.771484 0)"/>
      <use xlink:href="#DejaVuSans-Bold-20" transform="translate(568.962891 0)"/>
      <use xlink:href="#DejaVuSans-Bold-41" transform="translate(603.777344 0)"/>
      <use xlink:href="#DejaVuSans-Bold-63" transform="translate(681.169922 0)"/>
      <use xlink:href="#DejaVuSans-Bold-63" transform="translate(740.447266 0)"/>
      <use xlink:href="#DejaVuSans-Bold-75" transform="translate(799.724609 0)"/>
      <use xlink:href="#DejaVuSans-Bold-72" transform="translate(870.916016 0)"/>
      <use xlink:href="#DejaVuSans-Bold-61" transform="translate(920.232422 0)"/>
      <use xlink:href="#DejaVuSans-Bold-63" transform="translate(987.712891 0)"/>
      <use xlink:href="#DejaVuSans-Bold-79" transform="translate(1046.990234 0)"/>
      <use xlink:href="#DejaVuSans-Bold-20" transform="translate(1112.175781 0)"/>
      <use xlink:href="#DejaVuSans-Bold-28" transform="translate(1146.990234 0)"/>
      <use xlink:href="#DejaVuSans-Bold-25" transform="translate(1192.693359 0)"/>
      <use xlink:href="#DejaVuSans-Bold-29" transform="translate(1292.888672 0)"/>
     </g>
    </g>
   </g>
   <g id="line2d_63">
    <path d="M 638.402784 367.054176 
L 641.584785 347.411231 
L 644.766787 341.882977 
L 647.948788 331.649825 
L 651.130789 329.297377 
L 654.31279 321.181429 
L 657.494791 318.005624 
L 660.676793 321.651919 
L 663.858794 312.830237 
L 667.040795 307.65485 
L 670.222796 302.714708 
L 673.404798 302.126596 
L 676.586799 303.067575 
L 679.7688 304.2438 
L 682.950801 300.362259 
L 686.132802 293.069669 
L 689.314804 298.480301 
L 692.496805 297.304076 
L 695.678806 293.422536 
L 698.860807 284.365609 
L 702.042808 286.600435 
L 705.22481 288.247149 
L 708.406811 284.365609 
L 711.588812 275.896794 
L 714.770813 287.188548 
L 717.952815 278.484488 
L 721.134816 280.248824 
L 724.316817 277.308264 
L 727.498818 286.365191 
L 730.680819 281.425049 
L 733.862821 278.013998 
L 737.044822 272.250499 
L 740.226823 276.484907 
L 743.408824 266.95749 
L 746.590826 270.015673 
L 749.772827 272.132877 
L 752.954828 269.074694 
L 756.136829 271.074275 
L 759.31883 268.721826 
L 762.500832 271.662387 
L 765.682833 269.545183 
L 768.864834 263.664062 
L 772.046835 263.664062 
L 775.228837 265.546021 
L 778.410838 262.723083 
L 781.592839 261.429236 
L 784.77484 258.959165 
L 787.956841 265.898888 
L 791.138843 261.899726 
L 794.320844 256.841961 
L 797.502845 253.548533 
L 800.684846 253.078043 
L 803.866848 256.841961 
L 807.048849 254.607135 
L 810.23085 255.430492 
L 813.412851 250.49035 
L 816.594852 254.489513 
L 819.776854 254.136645 
L 822.958855 249.078881 
L 826.140856 248.490769 
L 829.322857 250.725595 
L 832.504859 253.195666 
L 835.68686 247.549789 
L 838.868861 247.902657 
L 842.050862 251.313707 
L 845.232863 245.66783 
L 848.414865 248.373146 
L 851.596866 250.96084 
L 854.778867 248.608391 
L 857.960868 248.961258 
L 861.14287 242.72727 
L 864.324871 249.784615 
L 867.506872 243.080137 
L 870.688873 248.137901 
L 873.870874 245.197341 
L 877.052876 246.020698 
L 880.234877 244.021117 
L 883.416878 245.550208 
L 886.598879 238.728107 
L 889.78088 242.609647 
L 892.962882 248.255524 
L 896.144883 244.844473 
L 899.326884 235.434679 
L 902.508885 239.669087 
L 905.690887 239.786709 
L 908.872888 244.021117 
L 912.054889 241.080556 
L 915.23689 237.199016 
L 918.418891 238.84573 
L 921.600893 236.963771 
L 924.782894 240.139576 
L 927.964895 240.139576 
L 931.146896 247.549789 
L 934.328898 236.728526 
L 937.510899 238.37524 
L 940.6929 242.492025 
L 943.874901 233.55272 
L 947.056902 244.726851 
L 950.238904 242.021535 
L 953.420905 246.491187 
" clip-path="url(#pcab6d8f4f5)" style="fill: none; stroke: #1f77b4; stroke-width: 2; stroke-linecap: square"/>
   </g>
   <g id="line2d_64">
    <path d="M 638.402784 337.883814 
L 641.584785 288.952884 
L 644.766787 234.258455 
L 647.948788 216.026979 
L 651.130789 209.910612 
L 654.31279 193.561095 
L 657.494791 163.684998 
L 660.676793 166.037447 
L 663.858794 165.21409 
L 667.040795 173.918149 
L 670.222796 160.156325 
L 673.404798 140.160513 
L 676.586799 140.631002 
L 679.7688 139.690023 
L 682.950801 140.51338 
L 686.132802 128.633515 
L 689.314804 140.631002 
L 692.496805 121.929036 
L 695.678806 122.046659 
L 698.860807 135.455616 
L 702.042808 132.162188 
L 705.22481 123.57575 
L 708.406811 121.576169 
L 711.588812 121.340924 
L 714.770813 117.224139 
L 717.952815 116.28316 
L 721.134816 129.692117 
L 724.316817 134.632259 
L 727.498818 120.399945 
L 730.680819 119.106098 
L 733.862821 131.221208 
L 737.044822 123.928618 
L 740.226823 122.399526 
L 743.408824 117.106517 
L 746.590826 114.165956 
L 749.772827 104.520917 
L 752.954828 115.34218 
L 756.136829 109.813926 
L 759.31883 109.343436 
L 762.500832 103.344693 
L 765.682833 101.345111 
L 768.864834 115.577425 
L 772.046835 96.522592 
L 775.228837 98.992663 
L 778.410838 113.460221 
L 781.592839 114.871691 
L 784.77484 101.697979 
L 787.956841 103.462315 
L 791.138843 97.110704 
L 794.320844 94.523011 
L 797.502845 91.58245 
L 800.684846 96.052102 
L 803.866848 98.757418 
L 807.048849 84.642727 
L 810.23085 93.111541 
L 813.412851 87.112798 
L 816.594852 85.230839 
L 819.776854 85.936573 
L 822.958855 89.818113 
L 826.140856 86.642308 
L 829.322857 88.171399 
L 832.504859 82.87839 
L 835.68686 84.172237 
L 838.868861 78.055871 
L 842.050862 80.996431 
L 845.232863 82.525523 
L 848.414865 82.4079 
L 851.596866 74.409575 
L 854.778867 70.057546 
L 857.960868 77.820626 
L 861.14287 73.586218 
L 864.324871 73.821463 
L 867.506872 68.410832 
L 870.688873 68.998944 
L 873.870874 63.941179 
L 877.052876 72.527617 
L 880.234877 64.529291 
L 883.416878 64.999781 
L 886.598879 63.823557 
L 889.78088 62.647333 
L 892.962882 60.294884 
L 896.144883 58.765792 
L 899.326884 59.589149 
L 902.508885 54.178518 
L 905.690887 54.649008 
L 908.872888 54.29614 
L 912.054889 48.297396 
L 915.23689 52.531804 
L 918.418891 49.826488 
L 921.600893 50.296978 
L 924.782894 46.768305 
L 927.964895 48.885509 
L 931.146896 46.180193 
L 934.328898 46.180193 
L 937.510899 41.945785 
L 940.6929 46.53306 
L 943.874901 45.709703 
L 947.056902 44.651101 
L 950.238904 45.592081 
L 953.420905 41.71054 
" clip-path="url(#pcab6d8f4f5)" style="fill: none; stroke: #ff7f0e; stroke-width: 2; stroke-linecap: square"/>
   </g>
   <g id="line2d_65">
    <path d="M 638.402784 356.821025 
L 641.584785 288.364772 
L 644.766787 247.314544 
L 647.948788 219.555651 
L 651.130789 205.44096 
L 654.31279 185.56277 
L 657.494791 196.148788 
L 660.676793 183.210321 
L 663.858794 172.624303 
L 667.040795 151.334643 
L 670.222796 155.451428 
L 673.404798 156.392408 
L 676.586799 161.33255 
L 679.7688 152.863735 
L 682.950801 173.330037 
L 686.132802 147.570726 
L 689.314804 145.924012 
L 692.496805 132.7503 
L 695.678806 132.397432 
L 702.042808 144.042053 
L 705.22481 127.92778 
L 708.406811 125.575332 
L 711.588812 121.811414 
L 714.770813 127.692535 
L 717.952815 138.749043 
L 721.134816 142.042471 
L 724.316817 135.69086 
L 727.498818 123.57575 
L 730.680819 120.399945 
L 733.862821 132.162188 
L 737.044822 116.753649 
L 740.226823 116.871272 
L 743.408824 108.167212 
L 746.590826 127.104423 
L 749.772827 116.518405 
L 752.954828 114.048334 
L 756.136829 120.752812 
L 759.31883 114.048334 
L 762.500832 112.40162 
L 765.682833 108.755324 
L 768.864834 132.632677 
L 772.046835 131.574075 
L 775.228837 114.636446 
L 778.410838 108.167212 
L 781.592839 107.5791 
L 784.77484 106.402876 
L 787.956841 106.873366 
L 791.138843 106.050009 
L 794.320844 100.521754 
L 797.502845 107.461478 
L 800.684846 128.86876 
L 803.866848 106.755743 
L 807.048849 114.518823 
L 810.23085 99.34553 
L 813.412851 96.169725 
L 816.594852 98.286928 
L 819.776854 100.874622 
L 822.958855 102.991825 
L 826.140856 105.814764 
L 829.322857 92.876297 
L 832.504859 100.521754 
L 835.68686 90.288603 
L 838.868861 98.169306 
L 842.050862 108.990569 
L 845.232863 99.110285 
L 848.414865 108.402457 
L 851.596866 101.345111 
L 854.778867 97.110704 
L 857.960868 100.404132 
L 861.14287 82.760768 
L 864.324871 103.22707 
L 867.506872 105.461896 
L 870.688873 93.346786 
L 873.870874 99.227908 
L 877.052876 97.934061 
L 880.234877 95.581612 
L 883.416878 114.165956 
L 886.598879 90.406226 
L 889.78088 81.231676 
L 892.962882 91.700072 
L 896.144883 86.995175 
L 899.326884 90.288603 
L 902.508885 86.995175 
L 905.690887 82.055033 
L 908.872888 85.936573 
L 912.054889 77.467759 
L 915.23689 84.642727 
L 918.418891 85.936573 
L 921.600893 84.995594 
L 924.782894 84.289859 
L 927.964895 91.11196 
L 931.146896 75.232932 
L 934.328898 74.527198 
L 937.510899 75.821045 
L 940.6929 75.232932 
L 943.874901 74.291953 
L 947.056902 88.289022 
L 950.238904 75.232932 
L 953.420905 85.113216 
L 956.602906 75.703422 
L 959.784907 70.410413 
L 962.966909 65.705516 
L 966.14891 73.821463 
L 969.330911 70.175168 
L 972.512912 70.528035 
L 975.694913 66.999362 
L 978.876915 67.705097 
L 982.058916 71.70426 
L 985.240917 67.940342 
L 988.422918 62.882577 
L 991.60492 64.058802 
L 994.786921 61.941598 
L 997.968922 60.882996 
L 1001.150923 62.412088 
L 1004.332924 68.057964 
L 1007.514926 57.707191 
L 1010.696927 54.413763 
L 1013.878928 56.530966 
L 1017.060929 60.294884 
L 1020.242931 55.119497 
L 1023.424932 59.706772 
L 1026.606933 54.29614 
L 1029.788934 56.530966 
L 1032.970935 52.531804 
L 1036.152937 57.236701 
L 1039.334938 51.237957 
L 1042.516939 49.826488 
L 1045.69894 48.179774 
L 1048.880942 48.885509 
L 1052.062943 48.297396 
L 1055.244944 52.061314 
L 1058.426945 48.179774 
L 1061.608946 43.474877 
L 1064.790948 46.885927 
L 1067.972949 45.239213 
L 1071.15495 45.709703 
L 1074.336951 45.121591 
L 1077.518952 43.357254 
L 1080.700954 47.238795 
L 1083.882955 42.18103 
L 1087.064956 43.474877 
L 1090.246957 43.357254 
L 1093.428959 45.121591 
L 1096.61096 41.004806 
L 1099.792961 41.592918 
L 1102.974962 42.886765 
L 1106.156963 42.063408 
L 1109.338965 45.003968 
L 1112.520966 40.181449 
L 1112.520966 40.181449 
" clip-path="url(#pcab6d8f4f5)" style="fill: none; stroke: #2ca02c; stroke-width: 2; stroke-linecap: square"/>
   </g>
   <g id="patch_9">
    <path d="M 614.696875 383.397812 
L 614.696875 23.837813 
" style="fill: none; stroke: #000000; stroke-width: 0.8; stroke-linejoin: miter; stroke-linecap: square"/>
   </g>
   <g id="patch_10">
    <path d="M 1136.226875 383.397812 
L 1136.226875 23.837813 
" style="fill: none; stroke: #000000; stroke-width: 0.8; stroke-linejoin: miter; stroke-linecap: square"/>
   </g>
   <g id="patch_11">
    <path d="M 614.696875 383.397812 
L 1136.226875 383.397812 
" style="fill: none; stroke: #000000; stroke-width: 0.8; stroke-linejoin: miter; stroke-linecap: square"/>
   </g>
   <g id="patch_12">
    <path d="M 614.696875 23.837812 
L 1136.226875 23.837812 
" style="fill: none; stroke: #000000; stroke-width: 0.8; stroke-linejoin: miter; stroke-linecap: square"/>
   </g>
   <g id="text_37">
    <!-- Training Progress - Accuracy -->
    <g transform="translate(762.76625 17.837812) scale(0.14 -0.14)">
     <use xlink:href="#DejaVuSans-Bold-54"/>
     <use xlink:href="#DejaVuSans-Bold-72" transform="translate(57.212891 0)"/>
     <use xlink:href="#DejaVuSans-Bold-61" transform="translate(106.529297 0)"/>
     <use xlink:href="#DejaVuSans-Bold-69" transform="translate(174.009766 0)"/>
     <use xlink:href="#DejaVuSans-Bold-6e" transform="translate(208.287109 0)"/>
     <use xlink:href="#DejaVuSans-Bold-69" transform="translate(279.478516 0)"/>
     <use xlink:href="#DejaVuSans-Bold-6e" transform="translate(313.755859 0)"/>
     <use xlink:href="#DejaVuSans-Bold-67" transform="translate(384.947266 0)"/>
     <use xlink:href="#DejaVuSans-Bold-20" transform="translate(456.529297 0)"/>
     <use xlink:href="#DejaVuSans-Bold-50" transform="translate(491.34375 0)"/>
     <use xlink:href="#DejaVuSans-Bold-72" transform="translate(564.634766 0)"/>
     <use xlink:href="#DejaVuSans-Bold-6f" transform="translate(613.951172 0)"/>
     <use xlink:href="#DejaVuSans-Bold-67" transform="translate(682.652344 0)"/>
     <use xlink:href="#DejaVuSans-Bold-72" transform="translate(754.234375 0)"/>
     <use xlink:href="#DejaVuSans-Bold-65" transform="translate(803.550781 0)"/>
     <use xlink:href="#DejaVuSans-Bold-73" transform="translate(871.373047 0)"/>
     <use xlink:href="#DejaVuSans-Bold-73" transform="translate(930.894531 0)"/>
     <use xlink:href="#DejaVuSans-Bold-20" transform="translate(990.416016 0)"/>
     <use xlink:href="#DejaVuSans-Bold-2d" transform="translate(1025.230469 0)"/>
     <use xlink:href="#DejaVuSans-Bold-20" transform="translate(1066.734375 0)"/>
     <use xlink:href="#DejaVuSans-Bold-41" transform="translate(1101.548828 0)"/>
     <use xlink:href="#DejaVuSans-Bold-63" transform="translate(1178.941406 0)"/>
     <use xlink:href="#DejaVuSans-Bold-63" transform="translate(1238.21875 0)"/>
     <use xlink:href="#DejaVuSans-Bold-75" transform="translate(1297.496094 0)"/>
     <use xlink:href="#DejaVuSans-Bold-72" transform="translate(1368.6875 0)"/>
     <use xlink:href="#DejaVuSans-Bold-61" transform="translate(1418.003906 0)"/>
     <use xlink:href="#DejaVuSans-Bold-63" transform="translate(1485.484375 0)"/>
     <use xlink:href="#DejaVuSans-Bold-79" transform="translate(1544.761719 0)"/>
    </g>
   </g>
   <g id="legend_2">
    <g id="patch_13">
     <path d="M 621.696875 75.872187 
L 736.228125 75.872187 
Q 738.228125 75.872187 738.228125 73.872187 
L 738.228125 30.837812 
Q 738.228125 28.837812 736.228125 28.837812 
L 621.696875 28.837812 
Q 619.696875 28.837812 619.696875 30.837812 
L 619.696875 73.872187 
Q 619.696875 75.872187 621.696875 75.872187 
z
" style="fill: #ffffff; opacity: 0.8; stroke: #cccccc; stroke-linejoin: miter"/>
    </g>
    <g id="line2d_66">
     <path d="M 623.696875 36.93625 
L 633.696875 36.93625 
L 643.696875 36.93625 
" style="fill: none; stroke: #1f77b4; stroke-width: 2; stroke-linecap: square"/>
    </g>
    <g id="text_38">
     <!-- MLP-Best -->
     <g transform="translate(651.696875 40.43625) scale(0.1 -0.1)">
      <use xlink:href="#DejaVuSans-4d"/>
      <use xlink:href="#DejaVuSans-4c" transform="translate(86.279297 0)"/>
      <use xlink:href="#DejaVuSans-50" transform="translate(141.992188 0)"/>
      <use xlink:href="#DejaVuSans-2d" transform="translate(200.044922 0)"/>
      <use xlink:href="#DejaVuSans-42" transform="translate(232.503906 0)"/>
      <use xlink:href="#DejaVuSans-65" transform="translate(301.107422 0)"/>
      <use xlink:href="#DejaVuSans-73" transform="translate(362.630859 0)"/>
      <use xlink:href="#DejaVuSans-74" transform="translate(414.730469 0)"/>
     </g>
    </g>
    <g id="line2d_67">
     <path d="M 623.696875 51.614375 
L 633.696875 51.614375 
L 643.696875 51.614375 
" style="fill: none; stroke: #ff7f0e; stroke-width: 2; stroke-linecap: square"/>
    </g>
    <g id="text_39">
     <!-- CNN-Best-100ep -->
     <g transform="translate(651.696875 55.114375) scale(0.1 -0.1)">
      <use xlink:href="#DejaVuSans-43"/>
      <use xlink:href="#DejaVuSans-4e" transform="translate(69.824219 0)"/>
      <use xlink:href="#DejaVuSans-4e" transform="translate(144.628906 0)"/>
      <use xlink:href="#DejaVuSans-2d" transform="translate(219.433594 0)"/>
      <use xlink:href="#DejaVuSans-42" transform="translate(251.892578 0)"/>
      <use xlink:href="#DejaVuSans-65" transform="translate(320.496094 0)"/>
      <use xlink:href="#DejaVuSans-73" transform="translate(382.019531 0)"/>
      <use xlink:href="#DejaVuSans-74" transform="translate(434.119141 0)"/>
      <use xlink:href="#DejaVuSans-2d" transform="translate(473.328125 0)"/>
      <use xlink:href="#DejaVuSans-31" transform="translate(509.412109 0)"/>
      <use xlink:href="#DejaVuSans-30" transform="translate(573.035156 0)"/>
      <use xlink:href="#DejaVuSans-30" transform="translate(636.658203 0)"/>
      <use xlink:href="#DejaVuSans-65" transform="translate(700.28125 0)"/>
      <use xlink:href="#DejaVuSans-70" transform="translate(761.804688 0)"/>
     </g>
    </g>
    <g id="line2d_68">
     <path d="M 623.696875 66.2925 
L 633.696875 66.2925 
L 643.696875 66.2925 
" style="fill: none; stroke: #2ca02c; stroke-width: 2; stroke-linecap: square"/>
    </g>
    <g id="text_40">
     <!-- CNN-Best-150ep -->
     <g transform="translate(651.696875 69.7925) scale(0.1 -0.1)">
      <use xlink:href="#DejaVuSans-43"/>
      <use xlink:href="#DejaVuSans-4e" transform="translate(69.824219 0)"/>
      <use xlink:href="#DejaVuSans-4e" transform="translate(144.628906 0)"/>
      <use xlink:href="#DejaVuSans-2d" transform="translate(219.433594 0)"/>
      <use xlink:href="#DejaVuSans-42" transform="translate(251.892578 0)"/>
      <use xlink:href="#DejaVuSans-65" transform="translate(320.496094 0)"/>
      <use xlink:href="#DejaVuSans-73" transform="translate(382.019531 0)"/>
      <use xlink:href="#DejaVuSans-74" transform="translate(434.119141 0)"/>
      <use xlink:href="#DejaVuSans-2d" transform="translate(473.328125 0)"/>
      <use xlink:href="#DejaVuSans-31" transform="translate(509.412109 0)"/>
      <use xlink:href="#DejaVuSans-35" transform="translate(573.035156 0)"/>
      <use xlink:href="#DejaVuSans-30" transform="translate(636.658203 0)"/>
      <use xlink:href="#DejaVuSans-65" transform="translate(700.28125 0)"/>
      <use xlink:href="#DejaVuSans-70" transform="translate(761.804688 0)"/>
     </g>
    </g>
   </g>
  </g>
 </g>
 <defs>
  <clipPath id="pfeb41c048c">
   <rect x="45.716875" y="23.837812" width="521.53" height="359.56"/>
  </clipPath>
  <clipPath id="pcab6d8f4f5">
   <rect x="614.696875" y="23.837812" width="521.53" height="359.56"/>
  </clipPath>
 </defs>
</svg>
